G04 #@! TF.GenerationSoftware,KiCad,Pcbnew,8.0.1*
G04 #@! TF.CreationDate,2025-01-11T23:12:33+02:00*
G04 #@! TF.ProjectId,NixProjectRev02,4e697850-726f-46a6-9563-745265763032,Rev02*
G04 #@! TF.SameCoordinates,Original*
G04 #@! TF.FileFunction,Legend,Top*
G04 #@! TF.FilePolarity,Positive*
%FSLAX46Y46*%
G04 Gerber Fmt 4.6, Leading zero omitted, Abs format (unit mm)*
G04 Created by KiCad (PCBNEW 8.0.1) date 2025-01-11 23:12:33*
%MOMM*%
%LPD*%
G01*
G04 APERTURE LIST*
G04 Aperture macros list*
%AMRoundRect*
0 Rectangle with rounded corners*
0 $1 Rounding radius*
0 $2 $3 $4 $5 $6 $7 $8 $9 X,Y pos of 4 corners*
0 Add a 4 corners polygon primitive as box body*
4,1,4,$2,$3,$4,$5,$6,$7,$8,$9,$2,$3,0*
0 Add four circle primitives for the rounded corners*
1,1,$1+$1,$2,$3*
1,1,$1+$1,$4,$5*
1,1,$1+$1,$6,$7*
1,1,$1+$1,$8,$9*
0 Add four rect primitives between the rounded corners*
20,1,$1+$1,$2,$3,$4,$5,0*
20,1,$1+$1,$4,$5,$6,$7,0*
20,1,$1+$1,$6,$7,$8,$9,0*
20,1,$1+$1,$8,$9,$2,$3,0*%
G04 Aperture macros list end*
%ADD10C,0.150000*%
%ADD11C,0.300000*%
%ADD12C,0.120000*%
%ADD13C,0.000000*%
%ADD14C,0.100000*%
%ADD15C,0.254000*%
%ADD16RoundRect,0.038000X-0.800000X-0.275000X0.800000X-0.275000X0.800000X0.275000X-0.800000X0.275000X0*%
%ADD17RoundRect,0.038000X0.275000X-0.800000X0.275000X0.800000X-0.275000X0.800000X-0.275000X-0.800000X0*%
%ADD18RoundRect,0.194000X0.194000X0.444000X-0.194000X0.444000X-0.194000X-0.444000X0.194000X-0.444000X0*%
%ADD19RoundRect,0.209000X-0.209000X-0.429000X0.209000X-0.429000X0.209000X0.429000X-0.209000X0.429000X0*%
%ADD20RoundRect,0.219000X-0.219000X-0.419000X0.219000X-0.419000X0.219000X0.419000X-0.219000X0.419000X0*%
%ADD21RoundRect,0.194000X-0.194000X-0.444000X0.194000X-0.444000X0.194000X0.444000X-0.194000X0.444000X0*%
%ADD22RoundRect,0.209000X0.209000X0.429000X-0.209000X0.429000X-0.209000X-0.429000X0.209000X-0.429000X0*%
%ADD23RoundRect,0.219000X0.219000X0.419000X-0.219000X0.419000X-0.219000X-0.419000X0.219000X-0.419000X0*%
%ADD24O,1.176000X1.776000*%
%ADD25C,1.476000*%
%ADD26O,1.476000X1.476000*%
%ADD27RoundRect,0.265833X-0.472167X0.372167X-0.472167X-0.372167X0.472167X-0.372167X0.472167X0.372167X0*%
%ADD28RoundRect,0.038000X3.937500X1.000000X-3.937500X1.000000X-3.937500X-1.000000X3.937500X-1.000000X0*%
%ADD29RoundRect,0.264339X-0.436161X-0.673661X0.436161X-0.673661X0.436161X0.673661X-0.436161X0.673661X0*%
%ADD30C,7.576000*%
%ADD31RoundRect,0.264339X0.436161X0.673661X-0.436161X0.673661X-0.436161X-0.673661X0.436161X-0.673661X0*%
%ADD32RoundRect,0.038000X0.800000X-0.800000X0.800000X0.800000X-0.800000X0.800000X-0.800000X-0.800000X0*%
%ADD33O,1.676000X1.676000*%
%ADD34C,2.076000*%
%ADD35RoundRect,0.264339X-0.673661X0.436161X-0.673661X-0.436161X0.673661X-0.436161X0.673661X0.436161X0*%
%ADD36RoundRect,0.169000X-0.894000X-0.169000X0.894000X-0.169000X0.894000X0.169000X-0.894000X0.169000X0*%
%ADD37O,3.076000X2.576000*%
%ADD38RoundRect,0.038000X-0.850000X0.850000X-0.850000X-0.850000X0.850000X-0.850000X0.850000X0.850000X0*%
%ADD39O,1.776000X1.776000*%
%ADD40C,1.422200*%
%ADD41RoundRect,0.264339X0.673661X-0.436161X0.673661X0.436161X-0.673661X0.436161X-0.673661X-0.436161X0*%
%ADD42RoundRect,0.265833X-0.372167X-0.472167X0.372167X-0.472167X0.372167X0.472167X-0.372167X0.472167X0*%
%ADD43RoundRect,0.038000X0.000000X2.121320X-2.121320X0.000000X0.000000X-2.121320X2.121320X0.000000X0*%
%ADD44C,3.076000*%
%ADD45C,0.676000*%
G04 APERTURE END LIST*
D10*
X123636779Y-57788866D02*
X124398684Y-57788866D01*
X124017731Y-58169819D02*
X124017731Y-57407914D01*
X125351064Y-57169819D02*
X124874874Y-57169819D01*
X124874874Y-57169819D02*
X124827255Y-57646009D01*
X124827255Y-57646009D02*
X124874874Y-57598390D01*
X124874874Y-57598390D02*
X124970112Y-57550771D01*
X124970112Y-57550771D02*
X125208207Y-57550771D01*
X125208207Y-57550771D02*
X125303445Y-57598390D01*
X125303445Y-57598390D02*
X125351064Y-57646009D01*
X125351064Y-57646009D02*
X125398683Y-57741247D01*
X125398683Y-57741247D02*
X125398683Y-57979342D01*
X125398683Y-57979342D02*
X125351064Y-58074580D01*
X125351064Y-58074580D02*
X125303445Y-58122200D01*
X125303445Y-58122200D02*
X125208207Y-58169819D01*
X125208207Y-58169819D02*
X124970112Y-58169819D01*
X124970112Y-58169819D02*
X124874874Y-58122200D01*
X124874874Y-58122200D02*
X124827255Y-58074580D01*
X125732017Y-57503152D02*
X125970112Y-58169819D01*
X125970112Y-58169819D02*
X126208207Y-57503152D01*
X127336779Y-58169819D02*
X127336779Y-57169819D01*
X127336779Y-57169819D02*
X127574874Y-57169819D01*
X127574874Y-57169819D02*
X127717731Y-57217438D01*
X127717731Y-57217438D02*
X127812969Y-57312676D01*
X127812969Y-57312676D02*
X127860588Y-57407914D01*
X127860588Y-57407914D02*
X127908207Y-57598390D01*
X127908207Y-57598390D02*
X127908207Y-57741247D01*
X127908207Y-57741247D02*
X127860588Y-57931723D01*
X127860588Y-57931723D02*
X127812969Y-58026961D01*
X127812969Y-58026961D02*
X127717731Y-58122200D01*
X127717731Y-58122200D02*
X127574874Y-58169819D01*
X127574874Y-58169819D02*
X127336779Y-58169819D01*
X128193922Y-57169819D02*
X128765350Y-57169819D01*
X128479636Y-58169819D02*
X128479636Y-57169819D01*
X129670112Y-58169819D02*
X129336779Y-57693628D01*
X129098684Y-58169819D02*
X129098684Y-57169819D01*
X129098684Y-57169819D02*
X129479636Y-57169819D01*
X129479636Y-57169819D02*
X129574874Y-57217438D01*
X129574874Y-57217438D02*
X129622493Y-57265057D01*
X129622493Y-57265057D02*
X129670112Y-57360295D01*
X129670112Y-57360295D02*
X129670112Y-57503152D01*
X129670112Y-57503152D02*
X129622493Y-57598390D01*
X129622493Y-57598390D02*
X129574874Y-57646009D01*
X129574874Y-57646009D02*
X129479636Y-57693628D01*
X129479636Y-57693628D02*
X129098684Y-57693628D01*
D11*
X170254510Y-50729400D02*
X171397368Y-50729400D01*
X170825939Y-51300828D02*
X170825939Y-50157971D01*
X172897368Y-51300828D02*
X172040225Y-51300828D01*
X172468796Y-51300828D02*
X172468796Y-49800828D01*
X172468796Y-49800828D02*
X172325939Y-50015114D01*
X172325939Y-50015114D02*
X172183082Y-50157971D01*
X172183082Y-50157971D02*
X172040225Y-50229400D01*
X173397367Y-49800828D02*
X174397367Y-49800828D01*
X174397367Y-49800828D02*
X173754510Y-51300828D01*
X175254510Y-49800828D02*
X175397367Y-49800828D01*
X175397367Y-49800828D02*
X175540224Y-49872257D01*
X175540224Y-49872257D02*
X175611653Y-49943685D01*
X175611653Y-49943685D02*
X175683081Y-50086542D01*
X175683081Y-50086542D02*
X175754510Y-50372257D01*
X175754510Y-50372257D02*
X175754510Y-50729400D01*
X175754510Y-50729400D02*
X175683081Y-51015114D01*
X175683081Y-51015114D02*
X175611653Y-51157971D01*
X175611653Y-51157971D02*
X175540224Y-51229400D01*
X175540224Y-51229400D02*
X175397367Y-51300828D01*
X175397367Y-51300828D02*
X175254510Y-51300828D01*
X175254510Y-51300828D02*
X175111653Y-51229400D01*
X175111653Y-51229400D02*
X175040224Y-51157971D01*
X175040224Y-51157971D02*
X174968795Y-51015114D01*
X174968795Y-51015114D02*
X174897367Y-50729400D01*
X174897367Y-50729400D02*
X174897367Y-50372257D01*
X174897367Y-50372257D02*
X174968795Y-50086542D01*
X174968795Y-50086542D02*
X175040224Y-49943685D01*
X175040224Y-49943685D02*
X175111653Y-49872257D01*
X175111653Y-49872257D02*
X175254510Y-49800828D01*
X176183081Y-49800828D02*
X176683081Y-51300828D01*
X176683081Y-51300828D02*
X177183081Y-49800828D01*
D10*
X124987207Y-51050819D02*
X124653874Y-50574628D01*
X124415779Y-51050819D02*
X124415779Y-50050819D01*
X124415779Y-50050819D02*
X124796731Y-50050819D01*
X124796731Y-50050819D02*
X124891969Y-50098438D01*
X124891969Y-50098438D02*
X124939588Y-50146057D01*
X124939588Y-50146057D02*
X124987207Y-50241295D01*
X124987207Y-50241295D02*
X124987207Y-50384152D01*
X124987207Y-50384152D02*
X124939588Y-50479390D01*
X124939588Y-50479390D02*
X124891969Y-50527009D01*
X124891969Y-50527009D02*
X124796731Y-50574628D01*
X124796731Y-50574628D02*
X124415779Y-50574628D01*
X125320541Y-51050819D02*
X125844350Y-50384152D01*
X125320541Y-50384152D02*
X125844350Y-51050819D01*
X118360588Y-54817438D02*
X118265350Y-54769819D01*
X118265350Y-54769819D02*
X118122493Y-54769819D01*
X118122493Y-54769819D02*
X117979636Y-54817438D01*
X117979636Y-54817438D02*
X117884398Y-54912676D01*
X117884398Y-54912676D02*
X117836779Y-55007914D01*
X117836779Y-55007914D02*
X117789160Y-55198390D01*
X117789160Y-55198390D02*
X117789160Y-55341247D01*
X117789160Y-55341247D02*
X117836779Y-55531723D01*
X117836779Y-55531723D02*
X117884398Y-55626961D01*
X117884398Y-55626961D02*
X117979636Y-55722200D01*
X117979636Y-55722200D02*
X118122493Y-55769819D01*
X118122493Y-55769819D02*
X118217731Y-55769819D01*
X118217731Y-55769819D02*
X118360588Y-55722200D01*
X118360588Y-55722200D02*
X118408207Y-55674580D01*
X118408207Y-55674580D02*
X118408207Y-55341247D01*
X118408207Y-55341247D02*
X118217731Y-55341247D01*
X118836779Y-55769819D02*
X118836779Y-54769819D01*
X118836779Y-54769819D02*
X119408207Y-55769819D01*
X119408207Y-55769819D02*
X119408207Y-54769819D01*
X119884398Y-55769819D02*
X119884398Y-54769819D01*
X119884398Y-54769819D02*
X120122493Y-54769819D01*
X120122493Y-54769819D02*
X120265350Y-54817438D01*
X120265350Y-54817438D02*
X120360588Y-54912676D01*
X120360588Y-54912676D02*
X120408207Y-55007914D01*
X120408207Y-55007914D02*
X120455826Y-55198390D01*
X120455826Y-55198390D02*
X120455826Y-55341247D01*
X120455826Y-55341247D02*
X120408207Y-55531723D01*
X120408207Y-55531723D02*
X120360588Y-55626961D01*
X120360588Y-55626961D02*
X120265350Y-55722200D01*
X120265350Y-55722200D02*
X120122493Y-55769819D01*
X120122493Y-55769819D02*
X119884398Y-55769819D01*
X126558922Y-50050819D02*
X127130350Y-50050819D01*
X126844636Y-51050819D02*
X126844636Y-50050819D01*
X127368446Y-51050819D02*
X127892255Y-50384152D01*
X127368446Y-50384152D02*
X127892255Y-51050819D01*
X118360588Y-52217438D02*
X118265350Y-52169819D01*
X118265350Y-52169819D02*
X118122493Y-52169819D01*
X118122493Y-52169819D02*
X117979636Y-52217438D01*
X117979636Y-52217438D02*
X117884398Y-52312676D01*
X117884398Y-52312676D02*
X117836779Y-52407914D01*
X117836779Y-52407914D02*
X117789160Y-52598390D01*
X117789160Y-52598390D02*
X117789160Y-52741247D01*
X117789160Y-52741247D02*
X117836779Y-52931723D01*
X117836779Y-52931723D02*
X117884398Y-53026961D01*
X117884398Y-53026961D02*
X117979636Y-53122200D01*
X117979636Y-53122200D02*
X118122493Y-53169819D01*
X118122493Y-53169819D02*
X118217731Y-53169819D01*
X118217731Y-53169819D02*
X118360588Y-53122200D01*
X118360588Y-53122200D02*
X118408207Y-53074580D01*
X118408207Y-53074580D02*
X118408207Y-52741247D01*
X118408207Y-52741247D02*
X118217731Y-52741247D01*
X118836779Y-53169819D02*
X118836779Y-52169819D01*
X118836779Y-52169819D02*
X119408207Y-53169819D01*
X119408207Y-53169819D02*
X119408207Y-52169819D01*
X119884398Y-53169819D02*
X119884398Y-52169819D01*
X119884398Y-52169819D02*
X120122493Y-52169819D01*
X120122493Y-52169819D02*
X120265350Y-52217438D01*
X120265350Y-52217438D02*
X120360588Y-52312676D01*
X120360588Y-52312676D02*
X120408207Y-52407914D01*
X120408207Y-52407914D02*
X120455826Y-52598390D01*
X120455826Y-52598390D02*
X120455826Y-52741247D01*
X120455826Y-52741247D02*
X120408207Y-52931723D01*
X120408207Y-52931723D02*
X120360588Y-53026961D01*
X120360588Y-53026961D02*
X120265350Y-53122200D01*
X120265350Y-53122200D02*
X120122493Y-53169819D01*
X120122493Y-53169819D02*
X119884398Y-53169819D01*
D11*
X165154510Y-50729400D02*
X166297368Y-50729400D01*
X165725939Y-51300828D02*
X165725939Y-50157971D01*
X167725939Y-49800828D02*
X167011653Y-49800828D01*
X167011653Y-49800828D02*
X166940225Y-50515114D01*
X166940225Y-50515114D02*
X167011653Y-50443685D01*
X167011653Y-50443685D02*
X167154511Y-50372257D01*
X167154511Y-50372257D02*
X167511653Y-50372257D01*
X167511653Y-50372257D02*
X167654511Y-50443685D01*
X167654511Y-50443685D02*
X167725939Y-50515114D01*
X167725939Y-50515114D02*
X167797368Y-50657971D01*
X167797368Y-50657971D02*
X167797368Y-51015114D01*
X167797368Y-51015114D02*
X167725939Y-51157971D01*
X167725939Y-51157971D02*
X167654511Y-51229400D01*
X167654511Y-51229400D02*
X167511653Y-51300828D01*
X167511653Y-51300828D02*
X167154511Y-51300828D01*
X167154511Y-51300828D02*
X167011653Y-51229400D01*
X167011653Y-51229400D02*
X166940225Y-51157971D01*
X168225939Y-49800828D02*
X168725939Y-51300828D01*
X168725939Y-51300828D02*
X169225939Y-49800828D01*
X159940225Y-49872257D02*
X159797368Y-49800828D01*
X159797368Y-49800828D02*
X159583082Y-49800828D01*
X159583082Y-49800828D02*
X159368796Y-49872257D01*
X159368796Y-49872257D02*
X159225939Y-50015114D01*
X159225939Y-50015114D02*
X159154510Y-50157971D01*
X159154510Y-50157971D02*
X159083082Y-50443685D01*
X159083082Y-50443685D02*
X159083082Y-50657971D01*
X159083082Y-50657971D02*
X159154510Y-50943685D01*
X159154510Y-50943685D02*
X159225939Y-51086542D01*
X159225939Y-51086542D02*
X159368796Y-51229400D01*
X159368796Y-51229400D02*
X159583082Y-51300828D01*
X159583082Y-51300828D02*
X159725939Y-51300828D01*
X159725939Y-51300828D02*
X159940225Y-51229400D01*
X159940225Y-51229400D02*
X160011653Y-51157971D01*
X160011653Y-51157971D02*
X160011653Y-50657971D01*
X160011653Y-50657971D02*
X159725939Y-50657971D01*
X160654510Y-51300828D02*
X160654510Y-49800828D01*
X160654510Y-49800828D02*
X161511653Y-51300828D01*
X161511653Y-51300828D02*
X161511653Y-49800828D01*
X162225939Y-51300828D02*
X162225939Y-49800828D01*
X162225939Y-49800828D02*
X162583082Y-49800828D01*
X162583082Y-49800828D02*
X162797368Y-49872257D01*
X162797368Y-49872257D02*
X162940225Y-50015114D01*
X162940225Y-50015114D02*
X163011654Y-50157971D01*
X163011654Y-50157971D02*
X163083082Y-50443685D01*
X163083082Y-50443685D02*
X163083082Y-50657971D01*
X163083082Y-50657971D02*
X163011654Y-50943685D01*
X163011654Y-50943685D02*
X162940225Y-51086542D01*
X162940225Y-51086542D02*
X162797368Y-51229400D01*
X162797368Y-51229400D02*
X162583082Y-51300828D01*
X162583082Y-51300828D02*
X162225939Y-51300828D01*
D10*
X118838095Y-61054819D02*
X118838095Y-61864342D01*
X118838095Y-61864342D02*
X118885714Y-61959580D01*
X118885714Y-61959580D02*
X118933333Y-62007200D01*
X118933333Y-62007200D02*
X119028571Y-62054819D01*
X119028571Y-62054819D02*
X119219047Y-62054819D01*
X119219047Y-62054819D02*
X119314285Y-62007200D01*
X119314285Y-62007200D02*
X119361904Y-61959580D01*
X119361904Y-61959580D02*
X119409523Y-61864342D01*
X119409523Y-61864342D02*
X119409523Y-61054819D01*
X120409523Y-62054819D02*
X119838095Y-62054819D01*
X120123809Y-62054819D02*
X120123809Y-61054819D01*
X120123809Y-61054819D02*
X120028571Y-61197676D01*
X120028571Y-61197676D02*
X119933333Y-61292914D01*
X119933333Y-61292914D02*
X119838095Y-61340533D01*
X151233333Y-51895180D02*
X151233333Y-51180895D01*
X151233333Y-51180895D02*
X151280952Y-51038038D01*
X151280952Y-51038038D02*
X151376190Y-50942800D01*
X151376190Y-50942800D02*
X151519047Y-50895180D01*
X151519047Y-50895180D02*
X151614285Y-50895180D01*
X150804761Y-51799942D02*
X150757142Y-51847561D01*
X150757142Y-51847561D02*
X150661904Y-51895180D01*
X150661904Y-51895180D02*
X150423809Y-51895180D01*
X150423809Y-51895180D02*
X150328571Y-51847561D01*
X150328571Y-51847561D02*
X150280952Y-51799942D01*
X150280952Y-51799942D02*
X150233333Y-51704704D01*
X150233333Y-51704704D02*
X150233333Y-51609466D01*
X150233333Y-51609466D02*
X150280952Y-51466609D01*
X150280952Y-51466609D02*
X150852380Y-50895180D01*
X150852380Y-50895180D02*
X150233333Y-50895180D01*
X195943333Y-77671939D02*
X195610000Y-77195748D01*
X195371905Y-77671939D02*
X195371905Y-76671939D01*
X195371905Y-76671939D02*
X195752857Y-76671939D01*
X195752857Y-76671939D02*
X195848095Y-76719558D01*
X195848095Y-76719558D02*
X195895714Y-76767177D01*
X195895714Y-76767177D02*
X195943333Y-76862415D01*
X195943333Y-76862415D02*
X195943333Y-77005272D01*
X195943333Y-77005272D02*
X195895714Y-77100510D01*
X195895714Y-77100510D02*
X195848095Y-77148129D01*
X195848095Y-77148129D02*
X195752857Y-77195748D01*
X195752857Y-77195748D02*
X195371905Y-77195748D01*
X196276667Y-76671939D02*
X196943333Y-76671939D01*
X196943333Y-76671939D02*
X196514762Y-77671939D01*
X233954819Y-88266666D02*
X233478628Y-88599999D01*
X233954819Y-88838094D02*
X232954819Y-88838094D01*
X232954819Y-88838094D02*
X232954819Y-88457142D01*
X232954819Y-88457142D02*
X233002438Y-88361904D01*
X233002438Y-88361904D02*
X233050057Y-88314285D01*
X233050057Y-88314285D02*
X233145295Y-88266666D01*
X233145295Y-88266666D02*
X233288152Y-88266666D01*
X233288152Y-88266666D02*
X233383390Y-88314285D01*
X233383390Y-88314285D02*
X233431009Y-88361904D01*
X233431009Y-88361904D02*
X233478628Y-88457142D01*
X233478628Y-88457142D02*
X233478628Y-88838094D01*
X233050057Y-87885713D02*
X233002438Y-87838094D01*
X233002438Y-87838094D02*
X232954819Y-87742856D01*
X232954819Y-87742856D02*
X232954819Y-87504761D01*
X232954819Y-87504761D02*
X233002438Y-87409523D01*
X233002438Y-87409523D02*
X233050057Y-87361904D01*
X233050057Y-87361904D02*
X233145295Y-87314285D01*
X233145295Y-87314285D02*
X233240533Y-87314285D01*
X233240533Y-87314285D02*
X233383390Y-87361904D01*
X233383390Y-87361904D02*
X233954819Y-87933332D01*
X233954819Y-87933332D02*
X233954819Y-87314285D01*
X101282309Y-72828628D02*
X101282309Y-73304819D01*
X100948976Y-72304819D02*
X101282309Y-72828628D01*
X101282309Y-72828628D02*
X101615642Y-72304819D01*
X102472785Y-73304819D02*
X101901357Y-73304819D01*
X102187071Y-73304819D02*
X102187071Y-72304819D01*
X102187071Y-72304819D02*
X102091833Y-72447676D01*
X102091833Y-72447676D02*
X101996595Y-72542914D01*
X101996595Y-72542914D02*
X101901357Y-72590533D01*
X132872642Y-71855580D02*
X132825023Y-71903200D01*
X132825023Y-71903200D02*
X132682166Y-71950819D01*
X132682166Y-71950819D02*
X132586928Y-71950819D01*
X132586928Y-71950819D02*
X132444071Y-71903200D01*
X132444071Y-71903200D02*
X132348833Y-71807961D01*
X132348833Y-71807961D02*
X132301214Y-71712723D01*
X132301214Y-71712723D02*
X132253595Y-71522247D01*
X132253595Y-71522247D02*
X132253595Y-71379390D01*
X132253595Y-71379390D02*
X132301214Y-71188914D01*
X132301214Y-71188914D02*
X132348833Y-71093676D01*
X132348833Y-71093676D02*
X132444071Y-70998438D01*
X132444071Y-70998438D02*
X132586928Y-70950819D01*
X132586928Y-70950819D02*
X132682166Y-70950819D01*
X132682166Y-70950819D02*
X132825023Y-70998438D01*
X132825023Y-70998438D02*
X132872642Y-71046057D01*
X133825023Y-71950819D02*
X133253595Y-71950819D01*
X133539309Y-71950819D02*
X133539309Y-70950819D01*
X133539309Y-70950819D02*
X133444071Y-71093676D01*
X133444071Y-71093676D02*
X133348833Y-71188914D01*
X133348833Y-71188914D02*
X133253595Y-71236533D01*
X134777404Y-71950819D02*
X134205976Y-71950819D01*
X134491690Y-71950819D02*
X134491690Y-70950819D01*
X134491690Y-70950819D02*
X134396452Y-71093676D01*
X134396452Y-71093676D02*
X134301214Y-71188914D01*
X134301214Y-71188914D02*
X134205976Y-71236533D01*
X65138095Y-109804819D02*
X65138095Y-108804819D01*
X65138095Y-109281009D02*
X65709523Y-109281009D01*
X65709523Y-109804819D02*
X65709523Y-108804819D01*
X66614285Y-109138152D02*
X66614285Y-109804819D01*
X66376190Y-108757200D02*
X66138095Y-109471485D01*
X66138095Y-109471485D02*
X66757142Y-109471485D01*
X116033333Y-69509580D02*
X115985714Y-69557200D01*
X115985714Y-69557200D02*
X115842857Y-69604819D01*
X115842857Y-69604819D02*
X115747619Y-69604819D01*
X115747619Y-69604819D02*
X115604762Y-69557200D01*
X115604762Y-69557200D02*
X115509524Y-69461961D01*
X115509524Y-69461961D02*
X115461905Y-69366723D01*
X115461905Y-69366723D02*
X115414286Y-69176247D01*
X115414286Y-69176247D02*
X115414286Y-69033390D01*
X115414286Y-69033390D02*
X115461905Y-68842914D01*
X115461905Y-68842914D02*
X115509524Y-68747676D01*
X115509524Y-68747676D02*
X115604762Y-68652438D01*
X115604762Y-68652438D02*
X115747619Y-68604819D01*
X115747619Y-68604819D02*
X115842857Y-68604819D01*
X115842857Y-68604819D02*
X115985714Y-68652438D01*
X115985714Y-68652438D02*
X116033333Y-68700057D01*
X116985714Y-69604819D02*
X116414286Y-69604819D01*
X116700000Y-69604819D02*
X116700000Y-68604819D01*
X116700000Y-68604819D02*
X116604762Y-68747676D01*
X116604762Y-68747676D02*
X116509524Y-68842914D01*
X116509524Y-68842914D02*
X116414286Y-68890533D01*
X107683333Y-117409580D02*
X107635714Y-117457200D01*
X107635714Y-117457200D02*
X107492857Y-117504819D01*
X107492857Y-117504819D02*
X107397619Y-117504819D01*
X107397619Y-117504819D02*
X107254762Y-117457200D01*
X107254762Y-117457200D02*
X107159524Y-117361961D01*
X107159524Y-117361961D02*
X107111905Y-117266723D01*
X107111905Y-117266723D02*
X107064286Y-117076247D01*
X107064286Y-117076247D02*
X107064286Y-116933390D01*
X107064286Y-116933390D02*
X107111905Y-116742914D01*
X107111905Y-116742914D02*
X107159524Y-116647676D01*
X107159524Y-116647676D02*
X107254762Y-116552438D01*
X107254762Y-116552438D02*
X107397619Y-116504819D01*
X107397619Y-116504819D02*
X107492857Y-116504819D01*
X107492857Y-116504819D02*
X107635714Y-116552438D01*
X107635714Y-116552438D02*
X107683333Y-116600057D01*
X108588095Y-116504819D02*
X108111905Y-116504819D01*
X108111905Y-116504819D02*
X108064286Y-116981009D01*
X108064286Y-116981009D02*
X108111905Y-116933390D01*
X108111905Y-116933390D02*
X108207143Y-116885771D01*
X108207143Y-116885771D02*
X108445238Y-116885771D01*
X108445238Y-116885771D02*
X108540476Y-116933390D01*
X108540476Y-116933390D02*
X108588095Y-116981009D01*
X108588095Y-116981009D02*
X108635714Y-117076247D01*
X108635714Y-117076247D02*
X108635714Y-117314342D01*
X108635714Y-117314342D02*
X108588095Y-117409580D01*
X108588095Y-117409580D02*
X108540476Y-117457200D01*
X108540476Y-117457200D02*
X108445238Y-117504819D01*
X108445238Y-117504819D02*
X108207143Y-117504819D01*
X108207143Y-117504819D02*
X108111905Y-117457200D01*
X108111905Y-117457200D02*
X108064286Y-117409580D01*
X216408095Y-107414819D02*
X216408095Y-108224342D01*
X216408095Y-108224342D02*
X216455714Y-108319580D01*
X216455714Y-108319580D02*
X216503333Y-108367200D01*
X216503333Y-108367200D02*
X216598571Y-108414819D01*
X216598571Y-108414819D02*
X216789047Y-108414819D01*
X216789047Y-108414819D02*
X216884285Y-108367200D01*
X216884285Y-108367200D02*
X216931904Y-108319580D01*
X216931904Y-108319580D02*
X216979523Y-108224342D01*
X216979523Y-108224342D02*
X216979523Y-107414819D01*
X217360476Y-107414819D02*
X217979523Y-107414819D01*
X217979523Y-107414819D02*
X217646190Y-107795771D01*
X217646190Y-107795771D02*
X217789047Y-107795771D01*
X217789047Y-107795771D02*
X217884285Y-107843390D01*
X217884285Y-107843390D02*
X217931904Y-107891009D01*
X217931904Y-107891009D02*
X217979523Y-107986247D01*
X217979523Y-107986247D02*
X217979523Y-108224342D01*
X217979523Y-108224342D02*
X217931904Y-108319580D01*
X217931904Y-108319580D02*
X217884285Y-108367200D01*
X217884285Y-108367200D02*
X217789047Y-108414819D01*
X217789047Y-108414819D02*
X217503333Y-108414819D01*
X217503333Y-108414819D02*
X217408095Y-108367200D01*
X217408095Y-108367200D02*
X217360476Y-108319580D01*
X94757142Y-61959580D02*
X94709523Y-62007200D01*
X94709523Y-62007200D02*
X94566666Y-62054819D01*
X94566666Y-62054819D02*
X94471428Y-62054819D01*
X94471428Y-62054819D02*
X94328571Y-62007200D01*
X94328571Y-62007200D02*
X94233333Y-61911961D01*
X94233333Y-61911961D02*
X94185714Y-61816723D01*
X94185714Y-61816723D02*
X94138095Y-61626247D01*
X94138095Y-61626247D02*
X94138095Y-61483390D01*
X94138095Y-61483390D02*
X94185714Y-61292914D01*
X94185714Y-61292914D02*
X94233333Y-61197676D01*
X94233333Y-61197676D02*
X94328571Y-61102438D01*
X94328571Y-61102438D02*
X94471428Y-61054819D01*
X94471428Y-61054819D02*
X94566666Y-61054819D01*
X94566666Y-61054819D02*
X94709523Y-61102438D01*
X94709523Y-61102438D02*
X94757142Y-61150057D01*
X95709523Y-62054819D02*
X95138095Y-62054819D01*
X95423809Y-62054819D02*
X95423809Y-61054819D01*
X95423809Y-61054819D02*
X95328571Y-61197676D01*
X95328571Y-61197676D02*
X95233333Y-61292914D01*
X95233333Y-61292914D02*
X95138095Y-61340533D01*
X96042857Y-61054819D02*
X96661904Y-61054819D01*
X96661904Y-61054819D02*
X96328571Y-61435771D01*
X96328571Y-61435771D02*
X96471428Y-61435771D01*
X96471428Y-61435771D02*
X96566666Y-61483390D01*
X96566666Y-61483390D02*
X96614285Y-61531009D01*
X96614285Y-61531009D02*
X96661904Y-61626247D01*
X96661904Y-61626247D02*
X96661904Y-61864342D01*
X96661904Y-61864342D02*
X96614285Y-61959580D01*
X96614285Y-61959580D02*
X96566666Y-62007200D01*
X96566666Y-62007200D02*
X96471428Y-62054819D01*
X96471428Y-62054819D02*
X96185714Y-62054819D01*
X96185714Y-62054819D02*
X96090476Y-62007200D01*
X96090476Y-62007200D02*
X96042857Y-61959580D01*
X134248095Y-107404819D02*
X134248095Y-108214342D01*
X134248095Y-108214342D02*
X134295714Y-108309580D01*
X134295714Y-108309580D02*
X134343333Y-108357200D01*
X134343333Y-108357200D02*
X134438571Y-108404819D01*
X134438571Y-108404819D02*
X134629047Y-108404819D01*
X134629047Y-108404819D02*
X134724285Y-108357200D01*
X134724285Y-108357200D02*
X134771904Y-108309580D01*
X134771904Y-108309580D02*
X134819523Y-108214342D01*
X134819523Y-108214342D02*
X134819523Y-107404819D01*
X135200476Y-107404819D02*
X135867142Y-107404819D01*
X135867142Y-107404819D02*
X135438571Y-108404819D01*
X234059580Y-83366666D02*
X234107200Y-83414285D01*
X234107200Y-83414285D02*
X234154819Y-83557142D01*
X234154819Y-83557142D02*
X234154819Y-83652380D01*
X234154819Y-83652380D02*
X234107200Y-83795237D01*
X234107200Y-83795237D02*
X234011961Y-83890475D01*
X234011961Y-83890475D02*
X233916723Y-83938094D01*
X233916723Y-83938094D02*
X233726247Y-83985713D01*
X233726247Y-83985713D02*
X233583390Y-83985713D01*
X233583390Y-83985713D02*
X233392914Y-83938094D01*
X233392914Y-83938094D02*
X233297676Y-83890475D01*
X233297676Y-83890475D02*
X233202438Y-83795237D01*
X233202438Y-83795237D02*
X233154819Y-83652380D01*
X233154819Y-83652380D02*
X233154819Y-83557142D01*
X233154819Y-83557142D02*
X233202438Y-83414285D01*
X233202438Y-83414285D02*
X233250057Y-83366666D01*
X233154819Y-83033332D02*
X233154819Y-82414285D01*
X233154819Y-82414285D02*
X233535771Y-82747618D01*
X233535771Y-82747618D02*
X233535771Y-82604761D01*
X233535771Y-82604761D02*
X233583390Y-82509523D01*
X233583390Y-82509523D02*
X233631009Y-82461904D01*
X233631009Y-82461904D02*
X233726247Y-82414285D01*
X233726247Y-82414285D02*
X233964342Y-82414285D01*
X233964342Y-82414285D02*
X234059580Y-82461904D01*
X234059580Y-82461904D02*
X234107200Y-82509523D01*
X234107200Y-82509523D02*
X234154819Y-82604761D01*
X234154819Y-82604761D02*
X234154819Y-82890475D01*
X234154819Y-82890475D02*
X234107200Y-82985713D01*
X234107200Y-82985713D02*
X234059580Y-83033332D01*
X104038095Y-53854819D02*
X104038095Y-54664342D01*
X104038095Y-54664342D02*
X104085714Y-54759580D01*
X104085714Y-54759580D02*
X104133333Y-54807200D01*
X104133333Y-54807200D02*
X104228571Y-54854819D01*
X104228571Y-54854819D02*
X104419047Y-54854819D01*
X104419047Y-54854819D02*
X104514285Y-54807200D01*
X104514285Y-54807200D02*
X104561904Y-54759580D01*
X104561904Y-54759580D02*
X104609523Y-54664342D01*
X104609523Y-54664342D02*
X104609523Y-53854819D01*
X105133333Y-54854819D02*
X105323809Y-54854819D01*
X105323809Y-54854819D02*
X105419047Y-54807200D01*
X105419047Y-54807200D02*
X105466666Y-54759580D01*
X105466666Y-54759580D02*
X105561904Y-54616723D01*
X105561904Y-54616723D02*
X105609523Y-54426247D01*
X105609523Y-54426247D02*
X105609523Y-54045295D01*
X105609523Y-54045295D02*
X105561904Y-53950057D01*
X105561904Y-53950057D02*
X105514285Y-53902438D01*
X105514285Y-53902438D02*
X105419047Y-53854819D01*
X105419047Y-53854819D02*
X105228571Y-53854819D01*
X105228571Y-53854819D02*
X105133333Y-53902438D01*
X105133333Y-53902438D02*
X105085714Y-53950057D01*
X105085714Y-53950057D02*
X105038095Y-54045295D01*
X105038095Y-54045295D02*
X105038095Y-54283390D01*
X105038095Y-54283390D02*
X105085714Y-54378628D01*
X105085714Y-54378628D02*
X105133333Y-54426247D01*
X105133333Y-54426247D02*
X105228571Y-54473866D01*
X105228571Y-54473866D02*
X105419047Y-54473866D01*
X105419047Y-54473866D02*
X105514285Y-54426247D01*
X105514285Y-54426247D02*
X105561904Y-54378628D01*
X105561904Y-54378628D02*
X105609523Y-54283390D01*
X65170095Y-60444819D02*
X65170095Y-59444819D01*
X65170095Y-59921009D02*
X65741523Y-59921009D01*
X65741523Y-60444819D02*
X65741523Y-59444819D01*
X66170095Y-59540057D02*
X66217714Y-59492438D01*
X66217714Y-59492438D02*
X66312952Y-59444819D01*
X66312952Y-59444819D02*
X66551047Y-59444819D01*
X66551047Y-59444819D02*
X66646285Y-59492438D01*
X66646285Y-59492438D02*
X66693904Y-59540057D01*
X66693904Y-59540057D02*
X66741523Y-59635295D01*
X66741523Y-59635295D02*
X66741523Y-59730533D01*
X66741523Y-59730533D02*
X66693904Y-59873390D01*
X66693904Y-59873390D02*
X66122476Y-60444819D01*
X66122476Y-60444819D02*
X66741523Y-60444819D01*
X85543333Y-77204819D02*
X85210000Y-76728628D01*
X84971905Y-77204819D02*
X84971905Y-76204819D01*
X84971905Y-76204819D02*
X85352857Y-76204819D01*
X85352857Y-76204819D02*
X85448095Y-76252438D01*
X85448095Y-76252438D02*
X85495714Y-76300057D01*
X85495714Y-76300057D02*
X85543333Y-76395295D01*
X85543333Y-76395295D02*
X85543333Y-76538152D01*
X85543333Y-76538152D02*
X85495714Y-76633390D01*
X85495714Y-76633390D02*
X85448095Y-76681009D01*
X85448095Y-76681009D02*
X85352857Y-76728628D01*
X85352857Y-76728628D02*
X84971905Y-76728628D01*
X86448095Y-76204819D02*
X85971905Y-76204819D01*
X85971905Y-76204819D02*
X85924286Y-76681009D01*
X85924286Y-76681009D02*
X85971905Y-76633390D01*
X85971905Y-76633390D02*
X86067143Y-76585771D01*
X86067143Y-76585771D02*
X86305238Y-76585771D01*
X86305238Y-76585771D02*
X86400476Y-76633390D01*
X86400476Y-76633390D02*
X86448095Y-76681009D01*
X86448095Y-76681009D02*
X86495714Y-76776247D01*
X86495714Y-76776247D02*
X86495714Y-77014342D01*
X86495714Y-77014342D02*
X86448095Y-77109580D01*
X86448095Y-77109580D02*
X86400476Y-77157200D01*
X86400476Y-77157200D02*
X86305238Y-77204819D01*
X86305238Y-77204819D02*
X86067143Y-77204819D01*
X86067143Y-77204819D02*
X85971905Y-77157200D01*
X85971905Y-77157200D02*
X85924286Y-77109580D01*
X210016667Y-58547200D02*
X210159524Y-58594819D01*
X210159524Y-58594819D02*
X210397619Y-58594819D01*
X210397619Y-58594819D02*
X210492857Y-58547200D01*
X210492857Y-58547200D02*
X210540476Y-58499580D01*
X210540476Y-58499580D02*
X210588095Y-58404342D01*
X210588095Y-58404342D02*
X210588095Y-58309104D01*
X210588095Y-58309104D02*
X210540476Y-58213866D01*
X210540476Y-58213866D02*
X210492857Y-58166247D01*
X210492857Y-58166247D02*
X210397619Y-58118628D01*
X210397619Y-58118628D02*
X210207143Y-58071009D01*
X210207143Y-58071009D02*
X210111905Y-58023390D01*
X210111905Y-58023390D02*
X210064286Y-57975771D01*
X210064286Y-57975771D02*
X210016667Y-57880533D01*
X210016667Y-57880533D02*
X210016667Y-57785295D01*
X210016667Y-57785295D02*
X210064286Y-57690057D01*
X210064286Y-57690057D02*
X210111905Y-57642438D01*
X210111905Y-57642438D02*
X210207143Y-57594819D01*
X210207143Y-57594819D02*
X210445238Y-57594819D01*
X210445238Y-57594819D02*
X210588095Y-57642438D01*
X210921429Y-57594819D02*
X211159524Y-58594819D01*
X211159524Y-58594819D02*
X211350000Y-57880533D01*
X211350000Y-57880533D02*
X211540476Y-58594819D01*
X211540476Y-58594819D02*
X211778572Y-57594819D01*
X212683333Y-58594819D02*
X212111905Y-58594819D01*
X212397619Y-58594819D02*
X212397619Y-57594819D01*
X212397619Y-57594819D02*
X212302381Y-57737676D01*
X212302381Y-57737676D02*
X212207143Y-57832914D01*
X212207143Y-57832914D02*
X212111905Y-57880533D01*
X140593333Y-77443199D02*
X140260000Y-76967008D01*
X140021905Y-77443199D02*
X140021905Y-76443199D01*
X140021905Y-76443199D02*
X140402857Y-76443199D01*
X140402857Y-76443199D02*
X140498095Y-76490818D01*
X140498095Y-76490818D02*
X140545714Y-76538437D01*
X140545714Y-76538437D02*
X140593333Y-76633675D01*
X140593333Y-76633675D02*
X140593333Y-76776532D01*
X140593333Y-76776532D02*
X140545714Y-76871770D01*
X140545714Y-76871770D02*
X140498095Y-76919389D01*
X140498095Y-76919389D02*
X140402857Y-76967008D01*
X140402857Y-76967008D02*
X140021905Y-76967008D01*
X141069524Y-77443199D02*
X141260000Y-77443199D01*
X141260000Y-77443199D02*
X141355238Y-77395580D01*
X141355238Y-77395580D02*
X141402857Y-77347960D01*
X141402857Y-77347960D02*
X141498095Y-77205103D01*
X141498095Y-77205103D02*
X141545714Y-77014627D01*
X141545714Y-77014627D02*
X141545714Y-76633675D01*
X141545714Y-76633675D02*
X141498095Y-76538437D01*
X141498095Y-76538437D02*
X141450476Y-76490818D01*
X141450476Y-76490818D02*
X141355238Y-76443199D01*
X141355238Y-76443199D02*
X141164762Y-76443199D01*
X141164762Y-76443199D02*
X141069524Y-76490818D01*
X141069524Y-76490818D02*
X141021905Y-76538437D01*
X141021905Y-76538437D02*
X140974286Y-76633675D01*
X140974286Y-76633675D02*
X140974286Y-76871770D01*
X140974286Y-76871770D02*
X141021905Y-76967008D01*
X141021905Y-76967008D02*
X141069524Y-77014627D01*
X141069524Y-77014627D02*
X141164762Y-77062246D01*
X141164762Y-77062246D02*
X141355238Y-77062246D01*
X141355238Y-77062246D02*
X141450476Y-77014627D01*
X141450476Y-77014627D02*
X141498095Y-76967008D01*
X141498095Y-76967008D02*
X141545714Y-76871770D01*
X154254819Y-59316857D02*
X153778628Y-59650190D01*
X154254819Y-59888285D02*
X153254819Y-59888285D01*
X153254819Y-59888285D02*
X153254819Y-59507333D01*
X153254819Y-59507333D02*
X153302438Y-59412095D01*
X153302438Y-59412095D02*
X153350057Y-59364476D01*
X153350057Y-59364476D02*
X153445295Y-59316857D01*
X153445295Y-59316857D02*
X153588152Y-59316857D01*
X153588152Y-59316857D02*
X153683390Y-59364476D01*
X153683390Y-59364476D02*
X153731009Y-59412095D01*
X153731009Y-59412095D02*
X153778628Y-59507333D01*
X153778628Y-59507333D02*
X153778628Y-59888285D01*
X154254819Y-58364476D02*
X154254819Y-58935904D01*
X154254819Y-58650190D02*
X153254819Y-58650190D01*
X153254819Y-58650190D02*
X153397676Y-58745428D01*
X153397676Y-58745428D02*
X153492914Y-58840666D01*
X153492914Y-58840666D02*
X153540533Y-58935904D01*
X154254819Y-57412095D02*
X154254819Y-57983523D01*
X154254819Y-57697809D02*
X153254819Y-57697809D01*
X153254819Y-57697809D02*
X153397676Y-57793047D01*
X153397676Y-57793047D02*
X153492914Y-57888285D01*
X153492914Y-57888285D02*
X153540533Y-57983523D01*
X94757142Y-55809580D02*
X94709523Y-55857200D01*
X94709523Y-55857200D02*
X94566666Y-55904819D01*
X94566666Y-55904819D02*
X94471428Y-55904819D01*
X94471428Y-55904819D02*
X94328571Y-55857200D01*
X94328571Y-55857200D02*
X94233333Y-55761961D01*
X94233333Y-55761961D02*
X94185714Y-55666723D01*
X94185714Y-55666723D02*
X94138095Y-55476247D01*
X94138095Y-55476247D02*
X94138095Y-55333390D01*
X94138095Y-55333390D02*
X94185714Y-55142914D01*
X94185714Y-55142914D02*
X94233333Y-55047676D01*
X94233333Y-55047676D02*
X94328571Y-54952438D01*
X94328571Y-54952438D02*
X94471428Y-54904819D01*
X94471428Y-54904819D02*
X94566666Y-54904819D01*
X94566666Y-54904819D02*
X94709523Y-54952438D01*
X94709523Y-54952438D02*
X94757142Y-55000057D01*
X95709523Y-55904819D02*
X95138095Y-55904819D01*
X95423809Y-55904819D02*
X95423809Y-54904819D01*
X95423809Y-54904819D02*
X95328571Y-55047676D01*
X95328571Y-55047676D02*
X95233333Y-55142914D01*
X95233333Y-55142914D02*
X95138095Y-55190533D01*
X96566666Y-55238152D02*
X96566666Y-55904819D01*
X96328571Y-54857200D02*
X96090476Y-55571485D01*
X96090476Y-55571485D02*
X96709523Y-55571485D01*
X213329762Y-87607630D02*
X213511191Y-87668106D01*
X213511191Y-87668106D02*
X213813572Y-87668106D01*
X213813572Y-87668106D02*
X213934524Y-87607630D01*
X213934524Y-87607630D02*
X213995000Y-87547153D01*
X213995000Y-87547153D02*
X214055477Y-87426201D01*
X214055477Y-87426201D02*
X214055477Y-87305249D01*
X214055477Y-87305249D02*
X213995000Y-87184296D01*
X213995000Y-87184296D02*
X213934524Y-87123820D01*
X213934524Y-87123820D02*
X213813572Y-87063344D01*
X213813572Y-87063344D02*
X213571667Y-87002868D01*
X213571667Y-87002868D02*
X213450715Y-86942391D01*
X213450715Y-86942391D02*
X213390238Y-86881915D01*
X213390238Y-86881915D02*
X213329762Y-86760963D01*
X213329762Y-86760963D02*
X213329762Y-86640010D01*
X213329762Y-86640010D02*
X213390238Y-86519058D01*
X213390238Y-86519058D02*
X213450715Y-86458582D01*
X213450715Y-86458582D02*
X213571667Y-86398106D01*
X213571667Y-86398106D02*
X213874048Y-86398106D01*
X213874048Y-86398106D02*
X214055477Y-86458582D01*
X215083572Y-87607630D02*
X214962620Y-87668106D01*
X214962620Y-87668106D02*
X214720715Y-87668106D01*
X214720715Y-87668106D02*
X214599762Y-87607630D01*
X214599762Y-87607630D02*
X214539286Y-87486677D01*
X214539286Y-87486677D02*
X214539286Y-87002868D01*
X214539286Y-87002868D02*
X214599762Y-86881915D01*
X214599762Y-86881915D02*
X214720715Y-86821439D01*
X214720715Y-86821439D02*
X214962620Y-86821439D01*
X214962620Y-86821439D02*
X215083572Y-86881915D01*
X215083572Y-86881915D02*
X215144048Y-87002868D01*
X215144048Y-87002868D02*
X215144048Y-87123820D01*
X215144048Y-87123820D02*
X214539286Y-87244772D01*
X216232619Y-87607630D02*
X216111667Y-87668106D01*
X216111667Y-87668106D02*
X215869762Y-87668106D01*
X215869762Y-87668106D02*
X215748810Y-87607630D01*
X215748810Y-87607630D02*
X215688333Y-87547153D01*
X215688333Y-87547153D02*
X215627857Y-87426201D01*
X215627857Y-87426201D02*
X215627857Y-87063344D01*
X215627857Y-87063344D02*
X215688333Y-86942391D01*
X215688333Y-86942391D02*
X215748810Y-86881915D01*
X215748810Y-86881915D02*
X215869762Y-86821439D01*
X215869762Y-86821439D02*
X216111667Y-86821439D01*
X216111667Y-86821439D02*
X216232619Y-86881915D01*
X216716428Y-87607630D02*
X216837381Y-87668106D01*
X216837381Y-87668106D02*
X217079285Y-87668106D01*
X217079285Y-87668106D02*
X217200238Y-87607630D01*
X217200238Y-87607630D02*
X217260714Y-87486677D01*
X217260714Y-87486677D02*
X217260714Y-87426201D01*
X217260714Y-87426201D02*
X217200238Y-87305249D01*
X217200238Y-87305249D02*
X217079285Y-87244772D01*
X217079285Y-87244772D02*
X216897857Y-87244772D01*
X216897857Y-87244772D02*
X216776904Y-87184296D01*
X216776904Y-87184296D02*
X216716428Y-87063344D01*
X216716428Y-87063344D02*
X216716428Y-87002868D01*
X216716428Y-87002868D02*
X216776904Y-86881915D01*
X216776904Y-86881915D02*
X216897857Y-86821439D01*
X216897857Y-86821439D02*
X217079285Y-86821439D01*
X217079285Y-86821439D02*
X217200238Y-86881915D01*
X217744523Y-86519058D02*
X217804999Y-86458582D01*
X217804999Y-86458582D02*
X217925952Y-86398106D01*
X217925952Y-86398106D02*
X218228333Y-86398106D01*
X218228333Y-86398106D02*
X218349285Y-86458582D01*
X218349285Y-86458582D02*
X218409761Y-86519058D01*
X218409761Y-86519058D02*
X218470238Y-86640010D01*
X218470238Y-86640010D02*
X218470238Y-86760963D01*
X218470238Y-86760963D02*
X218409761Y-86942391D01*
X218409761Y-86942391D02*
X217684047Y-87668106D01*
X217684047Y-87668106D02*
X218470238Y-87668106D01*
X132557142Y-65755580D02*
X132509523Y-65803200D01*
X132509523Y-65803200D02*
X132366666Y-65850819D01*
X132366666Y-65850819D02*
X132271428Y-65850819D01*
X132271428Y-65850819D02*
X132128571Y-65803200D01*
X132128571Y-65803200D02*
X132033333Y-65707961D01*
X132033333Y-65707961D02*
X131985714Y-65612723D01*
X131985714Y-65612723D02*
X131938095Y-65422247D01*
X131938095Y-65422247D02*
X131938095Y-65279390D01*
X131938095Y-65279390D02*
X131985714Y-65088914D01*
X131985714Y-65088914D02*
X132033333Y-64993676D01*
X132033333Y-64993676D02*
X132128571Y-64898438D01*
X132128571Y-64898438D02*
X132271428Y-64850819D01*
X132271428Y-64850819D02*
X132366666Y-64850819D01*
X132366666Y-64850819D02*
X132509523Y-64898438D01*
X132509523Y-64898438D02*
X132557142Y-64946057D01*
X133509523Y-65850819D02*
X132938095Y-65850819D01*
X133223809Y-65850819D02*
X133223809Y-64850819D01*
X133223809Y-64850819D02*
X133128571Y-64993676D01*
X133128571Y-64993676D02*
X133033333Y-65088914D01*
X133033333Y-65088914D02*
X132938095Y-65136533D01*
X133890476Y-64946057D02*
X133938095Y-64898438D01*
X133938095Y-64898438D02*
X134033333Y-64850819D01*
X134033333Y-64850819D02*
X134271428Y-64850819D01*
X134271428Y-64850819D02*
X134366666Y-64898438D01*
X134366666Y-64898438D02*
X134414285Y-64946057D01*
X134414285Y-64946057D02*
X134461904Y-65041295D01*
X134461904Y-65041295D02*
X134461904Y-65136533D01*
X134461904Y-65136533D02*
X134414285Y-65279390D01*
X134414285Y-65279390D02*
X133842857Y-65850819D01*
X133842857Y-65850819D02*
X134461904Y-65850819D01*
X193329762Y-87607630D02*
X193511191Y-87668106D01*
X193511191Y-87668106D02*
X193813572Y-87668106D01*
X193813572Y-87668106D02*
X193934524Y-87607630D01*
X193934524Y-87607630D02*
X193995000Y-87547153D01*
X193995000Y-87547153D02*
X194055477Y-87426201D01*
X194055477Y-87426201D02*
X194055477Y-87305249D01*
X194055477Y-87305249D02*
X193995000Y-87184296D01*
X193995000Y-87184296D02*
X193934524Y-87123820D01*
X193934524Y-87123820D02*
X193813572Y-87063344D01*
X193813572Y-87063344D02*
X193571667Y-87002868D01*
X193571667Y-87002868D02*
X193450715Y-86942391D01*
X193450715Y-86942391D02*
X193390238Y-86881915D01*
X193390238Y-86881915D02*
X193329762Y-86760963D01*
X193329762Y-86760963D02*
X193329762Y-86640010D01*
X193329762Y-86640010D02*
X193390238Y-86519058D01*
X193390238Y-86519058D02*
X193450715Y-86458582D01*
X193450715Y-86458582D02*
X193571667Y-86398106D01*
X193571667Y-86398106D02*
X193874048Y-86398106D01*
X193874048Y-86398106D02*
X194055477Y-86458582D01*
X195083572Y-87607630D02*
X194962620Y-87668106D01*
X194962620Y-87668106D02*
X194720715Y-87668106D01*
X194720715Y-87668106D02*
X194599762Y-87607630D01*
X194599762Y-87607630D02*
X194539286Y-87486677D01*
X194539286Y-87486677D02*
X194539286Y-87002868D01*
X194539286Y-87002868D02*
X194599762Y-86881915D01*
X194599762Y-86881915D02*
X194720715Y-86821439D01*
X194720715Y-86821439D02*
X194962620Y-86821439D01*
X194962620Y-86821439D02*
X195083572Y-86881915D01*
X195083572Y-86881915D02*
X195144048Y-87002868D01*
X195144048Y-87002868D02*
X195144048Y-87123820D01*
X195144048Y-87123820D02*
X194539286Y-87244772D01*
X196232619Y-87607630D02*
X196111667Y-87668106D01*
X196111667Y-87668106D02*
X195869762Y-87668106D01*
X195869762Y-87668106D02*
X195748810Y-87607630D01*
X195748810Y-87607630D02*
X195688333Y-87547153D01*
X195688333Y-87547153D02*
X195627857Y-87426201D01*
X195627857Y-87426201D02*
X195627857Y-87063344D01*
X195627857Y-87063344D02*
X195688333Y-86942391D01*
X195688333Y-86942391D02*
X195748810Y-86881915D01*
X195748810Y-86881915D02*
X195869762Y-86821439D01*
X195869762Y-86821439D02*
X196111667Y-86821439D01*
X196111667Y-86821439D02*
X196232619Y-86881915D01*
X196716428Y-87607630D02*
X196837381Y-87668106D01*
X196837381Y-87668106D02*
X197079285Y-87668106D01*
X197079285Y-87668106D02*
X197200238Y-87607630D01*
X197200238Y-87607630D02*
X197260714Y-87486677D01*
X197260714Y-87486677D02*
X197260714Y-87426201D01*
X197260714Y-87426201D02*
X197200238Y-87305249D01*
X197200238Y-87305249D02*
X197079285Y-87244772D01*
X197079285Y-87244772D02*
X196897857Y-87244772D01*
X196897857Y-87244772D02*
X196776904Y-87184296D01*
X196776904Y-87184296D02*
X196716428Y-87063344D01*
X196716428Y-87063344D02*
X196716428Y-87002868D01*
X196716428Y-87002868D02*
X196776904Y-86881915D01*
X196776904Y-86881915D02*
X196897857Y-86821439D01*
X196897857Y-86821439D02*
X197079285Y-86821439D01*
X197079285Y-86821439D02*
X197200238Y-86881915D01*
X198470238Y-87668106D02*
X197744523Y-87668106D01*
X198107380Y-87668106D02*
X198107380Y-86398106D01*
X198107380Y-86398106D02*
X197986428Y-86579534D01*
X197986428Y-86579534D02*
X197865476Y-86700487D01*
X197865476Y-86700487D02*
X197744523Y-86760963D01*
X82876190Y-87510626D02*
X82876190Y-86240626D01*
X82876190Y-86845388D02*
X83601905Y-86845388D01*
X83601905Y-87510626D02*
X83601905Y-86240626D01*
X84388095Y-87510626D02*
X84267143Y-87450150D01*
X84267143Y-87450150D02*
X84206666Y-87389673D01*
X84206666Y-87389673D02*
X84146190Y-87268721D01*
X84146190Y-87268721D02*
X84146190Y-86905864D01*
X84146190Y-86905864D02*
X84206666Y-86784911D01*
X84206666Y-86784911D02*
X84267143Y-86724435D01*
X84267143Y-86724435D02*
X84388095Y-86663959D01*
X84388095Y-86663959D02*
X84569524Y-86663959D01*
X84569524Y-86663959D02*
X84690476Y-86724435D01*
X84690476Y-86724435D02*
X84750952Y-86784911D01*
X84750952Y-86784911D02*
X84811428Y-86905864D01*
X84811428Y-86905864D02*
X84811428Y-87268721D01*
X84811428Y-87268721D02*
X84750952Y-87389673D01*
X84750952Y-87389673D02*
X84690476Y-87450150D01*
X84690476Y-87450150D02*
X84569524Y-87510626D01*
X84569524Y-87510626D02*
X84388095Y-87510626D01*
X85900000Y-86663959D02*
X85900000Y-87510626D01*
X85355714Y-86663959D02*
X85355714Y-87329197D01*
X85355714Y-87329197D02*
X85416191Y-87450150D01*
X85416191Y-87450150D02*
X85537143Y-87510626D01*
X85537143Y-87510626D02*
X85718572Y-87510626D01*
X85718572Y-87510626D02*
X85839524Y-87450150D01*
X85839524Y-87450150D02*
X85900000Y-87389673D01*
X86504762Y-87510626D02*
X86504762Y-86663959D01*
X86504762Y-86905864D02*
X86565239Y-86784911D01*
X86565239Y-86784911D02*
X86625715Y-86724435D01*
X86625715Y-86724435D02*
X86746667Y-86663959D01*
X86746667Y-86663959D02*
X86867620Y-86663959D01*
X87230476Y-87450150D02*
X87351429Y-87510626D01*
X87351429Y-87510626D02*
X87593333Y-87510626D01*
X87593333Y-87510626D02*
X87714286Y-87450150D01*
X87714286Y-87450150D02*
X87774762Y-87329197D01*
X87774762Y-87329197D02*
X87774762Y-87268721D01*
X87774762Y-87268721D02*
X87714286Y-87147769D01*
X87714286Y-87147769D02*
X87593333Y-87087292D01*
X87593333Y-87087292D02*
X87411905Y-87087292D01*
X87411905Y-87087292D02*
X87290952Y-87026816D01*
X87290952Y-87026816D02*
X87230476Y-86905864D01*
X87230476Y-86905864D02*
X87230476Y-86845388D01*
X87230476Y-86845388D02*
X87290952Y-86724435D01*
X87290952Y-86724435D02*
X87411905Y-86663959D01*
X87411905Y-86663959D02*
X87593333Y-86663959D01*
X87593333Y-86663959D02*
X87714286Y-86724435D01*
X88984286Y-87510626D02*
X88258571Y-87510626D01*
X88621428Y-87510626D02*
X88621428Y-86240626D01*
X88621428Y-86240626D02*
X88500476Y-86422054D01*
X88500476Y-86422054D02*
X88379524Y-86543007D01*
X88379524Y-86543007D02*
X88258571Y-86603483D01*
X194883333Y-117109580D02*
X194835714Y-117157200D01*
X194835714Y-117157200D02*
X194692857Y-117204819D01*
X194692857Y-117204819D02*
X194597619Y-117204819D01*
X194597619Y-117204819D02*
X194454762Y-117157200D01*
X194454762Y-117157200D02*
X194359524Y-117061961D01*
X194359524Y-117061961D02*
X194311905Y-116966723D01*
X194311905Y-116966723D02*
X194264286Y-116776247D01*
X194264286Y-116776247D02*
X194264286Y-116633390D01*
X194264286Y-116633390D02*
X194311905Y-116442914D01*
X194311905Y-116442914D02*
X194359524Y-116347676D01*
X194359524Y-116347676D02*
X194454762Y-116252438D01*
X194454762Y-116252438D02*
X194597619Y-116204819D01*
X194597619Y-116204819D02*
X194692857Y-116204819D01*
X194692857Y-116204819D02*
X194835714Y-116252438D01*
X194835714Y-116252438D02*
X194883333Y-116300057D01*
X195454762Y-116633390D02*
X195359524Y-116585771D01*
X195359524Y-116585771D02*
X195311905Y-116538152D01*
X195311905Y-116538152D02*
X195264286Y-116442914D01*
X195264286Y-116442914D02*
X195264286Y-116395295D01*
X195264286Y-116395295D02*
X195311905Y-116300057D01*
X195311905Y-116300057D02*
X195359524Y-116252438D01*
X195359524Y-116252438D02*
X195454762Y-116204819D01*
X195454762Y-116204819D02*
X195645238Y-116204819D01*
X195645238Y-116204819D02*
X195740476Y-116252438D01*
X195740476Y-116252438D02*
X195788095Y-116300057D01*
X195788095Y-116300057D02*
X195835714Y-116395295D01*
X195835714Y-116395295D02*
X195835714Y-116442914D01*
X195835714Y-116442914D02*
X195788095Y-116538152D01*
X195788095Y-116538152D02*
X195740476Y-116585771D01*
X195740476Y-116585771D02*
X195645238Y-116633390D01*
X195645238Y-116633390D02*
X195454762Y-116633390D01*
X195454762Y-116633390D02*
X195359524Y-116681009D01*
X195359524Y-116681009D02*
X195311905Y-116728628D01*
X195311905Y-116728628D02*
X195264286Y-116823866D01*
X195264286Y-116823866D02*
X195264286Y-117014342D01*
X195264286Y-117014342D02*
X195311905Y-117109580D01*
X195311905Y-117109580D02*
X195359524Y-117157200D01*
X195359524Y-117157200D02*
X195454762Y-117204819D01*
X195454762Y-117204819D02*
X195645238Y-117204819D01*
X195645238Y-117204819D02*
X195740476Y-117157200D01*
X195740476Y-117157200D02*
X195788095Y-117109580D01*
X195788095Y-117109580D02*
X195835714Y-117014342D01*
X195835714Y-117014342D02*
X195835714Y-116823866D01*
X195835714Y-116823866D02*
X195788095Y-116728628D01*
X195788095Y-116728628D02*
X195740476Y-116681009D01*
X195740476Y-116681009D02*
X195645238Y-116633390D01*
X104328095Y-107394819D02*
X104328095Y-108204342D01*
X104328095Y-108204342D02*
X104375714Y-108299580D01*
X104375714Y-108299580D02*
X104423333Y-108347200D01*
X104423333Y-108347200D02*
X104518571Y-108394819D01*
X104518571Y-108394819D02*
X104709047Y-108394819D01*
X104709047Y-108394819D02*
X104804285Y-108347200D01*
X104804285Y-108347200D02*
X104851904Y-108299580D01*
X104851904Y-108299580D02*
X104899523Y-108204342D01*
X104899523Y-108204342D02*
X104899523Y-107394819D01*
X105804285Y-107394819D02*
X105613809Y-107394819D01*
X105613809Y-107394819D02*
X105518571Y-107442438D01*
X105518571Y-107442438D02*
X105470952Y-107490057D01*
X105470952Y-107490057D02*
X105375714Y-107632914D01*
X105375714Y-107632914D02*
X105328095Y-107823390D01*
X105328095Y-107823390D02*
X105328095Y-108204342D01*
X105328095Y-108204342D02*
X105375714Y-108299580D01*
X105375714Y-108299580D02*
X105423333Y-108347200D01*
X105423333Y-108347200D02*
X105518571Y-108394819D01*
X105518571Y-108394819D02*
X105709047Y-108394819D01*
X105709047Y-108394819D02*
X105804285Y-108347200D01*
X105804285Y-108347200D02*
X105851904Y-108299580D01*
X105851904Y-108299580D02*
X105899523Y-108204342D01*
X105899523Y-108204342D02*
X105899523Y-107966247D01*
X105899523Y-107966247D02*
X105851904Y-107871009D01*
X105851904Y-107871009D02*
X105804285Y-107823390D01*
X105804285Y-107823390D02*
X105709047Y-107775771D01*
X105709047Y-107775771D02*
X105518571Y-107775771D01*
X105518571Y-107775771D02*
X105423333Y-107823390D01*
X105423333Y-107823390D02*
X105375714Y-107871009D01*
X105375714Y-107871009D02*
X105328095Y-107966247D01*
X133459580Y-54642857D02*
X133507200Y-54690476D01*
X133507200Y-54690476D02*
X133554819Y-54833333D01*
X133554819Y-54833333D02*
X133554819Y-54928571D01*
X133554819Y-54928571D02*
X133507200Y-55071428D01*
X133507200Y-55071428D02*
X133411961Y-55166666D01*
X133411961Y-55166666D02*
X133316723Y-55214285D01*
X133316723Y-55214285D02*
X133126247Y-55261904D01*
X133126247Y-55261904D02*
X132983390Y-55261904D01*
X132983390Y-55261904D02*
X132792914Y-55214285D01*
X132792914Y-55214285D02*
X132697676Y-55166666D01*
X132697676Y-55166666D02*
X132602438Y-55071428D01*
X132602438Y-55071428D02*
X132554819Y-54928571D01*
X132554819Y-54928571D02*
X132554819Y-54833333D01*
X132554819Y-54833333D02*
X132602438Y-54690476D01*
X132602438Y-54690476D02*
X132650057Y-54642857D01*
X133554819Y-53690476D02*
X133554819Y-54261904D01*
X133554819Y-53976190D02*
X132554819Y-53976190D01*
X132554819Y-53976190D02*
X132697676Y-54071428D01*
X132697676Y-54071428D02*
X132792914Y-54166666D01*
X132792914Y-54166666D02*
X132840533Y-54261904D01*
X132554819Y-52785714D02*
X132554819Y-53261904D01*
X132554819Y-53261904D02*
X133031009Y-53309523D01*
X133031009Y-53309523D02*
X132983390Y-53261904D01*
X132983390Y-53261904D02*
X132935771Y-53166666D01*
X132935771Y-53166666D02*
X132935771Y-52928571D01*
X132935771Y-52928571D02*
X132983390Y-52833333D01*
X132983390Y-52833333D02*
X133031009Y-52785714D01*
X133031009Y-52785714D02*
X133126247Y-52738095D01*
X133126247Y-52738095D02*
X133364342Y-52738095D01*
X133364342Y-52738095D02*
X133459580Y-52785714D01*
X133459580Y-52785714D02*
X133507200Y-52833333D01*
X133507200Y-52833333D02*
X133554819Y-52928571D01*
X133554819Y-52928571D02*
X133554819Y-53166666D01*
X133554819Y-53166666D02*
X133507200Y-53261904D01*
X133507200Y-53261904D02*
X133459580Y-53309523D01*
X219833333Y-117159580D02*
X219785714Y-117207200D01*
X219785714Y-117207200D02*
X219642857Y-117254819D01*
X219642857Y-117254819D02*
X219547619Y-117254819D01*
X219547619Y-117254819D02*
X219404762Y-117207200D01*
X219404762Y-117207200D02*
X219309524Y-117111961D01*
X219309524Y-117111961D02*
X219261905Y-117016723D01*
X219261905Y-117016723D02*
X219214286Y-116826247D01*
X219214286Y-116826247D02*
X219214286Y-116683390D01*
X219214286Y-116683390D02*
X219261905Y-116492914D01*
X219261905Y-116492914D02*
X219309524Y-116397676D01*
X219309524Y-116397676D02*
X219404762Y-116302438D01*
X219404762Y-116302438D02*
X219547619Y-116254819D01*
X219547619Y-116254819D02*
X219642857Y-116254819D01*
X219642857Y-116254819D02*
X219785714Y-116302438D01*
X219785714Y-116302438D02*
X219833333Y-116350057D01*
X220309524Y-117254819D02*
X220500000Y-117254819D01*
X220500000Y-117254819D02*
X220595238Y-117207200D01*
X220595238Y-117207200D02*
X220642857Y-117159580D01*
X220642857Y-117159580D02*
X220738095Y-117016723D01*
X220738095Y-117016723D02*
X220785714Y-116826247D01*
X220785714Y-116826247D02*
X220785714Y-116445295D01*
X220785714Y-116445295D02*
X220738095Y-116350057D01*
X220738095Y-116350057D02*
X220690476Y-116302438D01*
X220690476Y-116302438D02*
X220595238Y-116254819D01*
X220595238Y-116254819D02*
X220404762Y-116254819D01*
X220404762Y-116254819D02*
X220309524Y-116302438D01*
X220309524Y-116302438D02*
X220261905Y-116350057D01*
X220261905Y-116350057D02*
X220214286Y-116445295D01*
X220214286Y-116445295D02*
X220214286Y-116683390D01*
X220214286Y-116683390D02*
X220261905Y-116778628D01*
X220261905Y-116778628D02*
X220309524Y-116826247D01*
X220309524Y-116826247D02*
X220404762Y-116873866D01*
X220404762Y-116873866D02*
X220595238Y-116873866D01*
X220595238Y-116873866D02*
X220690476Y-116826247D01*
X220690476Y-116826247D02*
X220738095Y-116778628D01*
X220738095Y-116778628D02*
X220785714Y-116683390D01*
X105953333Y-77274819D02*
X105620000Y-76798628D01*
X105381905Y-77274819D02*
X105381905Y-76274819D01*
X105381905Y-76274819D02*
X105762857Y-76274819D01*
X105762857Y-76274819D02*
X105858095Y-76322438D01*
X105858095Y-76322438D02*
X105905714Y-76370057D01*
X105905714Y-76370057D02*
X105953333Y-76465295D01*
X105953333Y-76465295D02*
X105953333Y-76608152D01*
X105953333Y-76608152D02*
X105905714Y-76703390D01*
X105905714Y-76703390D02*
X105858095Y-76751009D01*
X105858095Y-76751009D02*
X105762857Y-76798628D01*
X105762857Y-76798628D02*
X105381905Y-76798628D01*
X106524762Y-76703390D02*
X106429524Y-76655771D01*
X106429524Y-76655771D02*
X106381905Y-76608152D01*
X106381905Y-76608152D02*
X106334286Y-76512914D01*
X106334286Y-76512914D02*
X106334286Y-76465295D01*
X106334286Y-76465295D02*
X106381905Y-76370057D01*
X106381905Y-76370057D02*
X106429524Y-76322438D01*
X106429524Y-76322438D02*
X106524762Y-76274819D01*
X106524762Y-76274819D02*
X106715238Y-76274819D01*
X106715238Y-76274819D02*
X106810476Y-76322438D01*
X106810476Y-76322438D02*
X106858095Y-76370057D01*
X106858095Y-76370057D02*
X106905714Y-76465295D01*
X106905714Y-76465295D02*
X106905714Y-76512914D01*
X106905714Y-76512914D02*
X106858095Y-76608152D01*
X106858095Y-76608152D02*
X106810476Y-76655771D01*
X106810476Y-76655771D02*
X106715238Y-76703390D01*
X106715238Y-76703390D02*
X106524762Y-76703390D01*
X106524762Y-76703390D02*
X106429524Y-76751009D01*
X106429524Y-76751009D02*
X106381905Y-76798628D01*
X106381905Y-76798628D02*
X106334286Y-76893866D01*
X106334286Y-76893866D02*
X106334286Y-77084342D01*
X106334286Y-77084342D02*
X106381905Y-77179580D01*
X106381905Y-77179580D02*
X106429524Y-77227200D01*
X106429524Y-77227200D02*
X106524762Y-77274819D01*
X106524762Y-77274819D02*
X106715238Y-77274819D01*
X106715238Y-77274819D02*
X106810476Y-77227200D01*
X106810476Y-77227200D02*
X106858095Y-77179580D01*
X106858095Y-77179580D02*
X106905714Y-77084342D01*
X106905714Y-77084342D02*
X106905714Y-76893866D01*
X106905714Y-76893866D02*
X106858095Y-76798628D01*
X106858095Y-76798628D02*
X106810476Y-76751009D01*
X106810476Y-76751009D02*
X106715238Y-76703390D01*
X162783333Y-117359580D02*
X162735714Y-117407200D01*
X162735714Y-117407200D02*
X162592857Y-117454819D01*
X162592857Y-117454819D02*
X162497619Y-117454819D01*
X162497619Y-117454819D02*
X162354762Y-117407200D01*
X162354762Y-117407200D02*
X162259524Y-117311961D01*
X162259524Y-117311961D02*
X162211905Y-117216723D01*
X162211905Y-117216723D02*
X162164286Y-117026247D01*
X162164286Y-117026247D02*
X162164286Y-116883390D01*
X162164286Y-116883390D02*
X162211905Y-116692914D01*
X162211905Y-116692914D02*
X162259524Y-116597676D01*
X162259524Y-116597676D02*
X162354762Y-116502438D01*
X162354762Y-116502438D02*
X162497619Y-116454819D01*
X162497619Y-116454819D02*
X162592857Y-116454819D01*
X162592857Y-116454819D02*
X162735714Y-116502438D01*
X162735714Y-116502438D02*
X162783333Y-116550057D01*
X163116667Y-116454819D02*
X163783333Y-116454819D01*
X163783333Y-116454819D02*
X163354762Y-117454819D01*
X113633333Y-59954819D02*
X113300000Y-59478628D01*
X113061905Y-59954819D02*
X113061905Y-58954819D01*
X113061905Y-58954819D02*
X113442857Y-58954819D01*
X113442857Y-58954819D02*
X113538095Y-59002438D01*
X113538095Y-59002438D02*
X113585714Y-59050057D01*
X113585714Y-59050057D02*
X113633333Y-59145295D01*
X113633333Y-59145295D02*
X113633333Y-59288152D01*
X113633333Y-59288152D02*
X113585714Y-59383390D01*
X113585714Y-59383390D02*
X113538095Y-59431009D01*
X113538095Y-59431009D02*
X113442857Y-59478628D01*
X113442857Y-59478628D02*
X113061905Y-59478628D01*
X114490476Y-59288152D02*
X114490476Y-59954819D01*
X114252381Y-58907200D02*
X114014286Y-59621485D01*
X114014286Y-59621485D02*
X114633333Y-59621485D01*
X148854819Y-59316857D02*
X148378628Y-59650190D01*
X148854819Y-59888285D02*
X147854819Y-59888285D01*
X147854819Y-59888285D02*
X147854819Y-59507333D01*
X147854819Y-59507333D02*
X147902438Y-59412095D01*
X147902438Y-59412095D02*
X147950057Y-59364476D01*
X147950057Y-59364476D02*
X148045295Y-59316857D01*
X148045295Y-59316857D02*
X148188152Y-59316857D01*
X148188152Y-59316857D02*
X148283390Y-59364476D01*
X148283390Y-59364476D02*
X148331009Y-59412095D01*
X148331009Y-59412095D02*
X148378628Y-59507333D01*
X148378628Y-59507333D02*
X148378628Y-59888285D01*
X148854819Y-58364476D02*
X148854819Y-58935904D01*
X148854819Y-58650190D02*
X147854819Y-58650190D01*
X147854819Y-58650190D02*
X147997676Y-58745428D01*
X147997676Y-58745428D02*
X148092914Y-58840666D01*
X148092914Y-58840666D02*
X148140533Y-58935904D01*
X147950057Y-57983523D02*
X147902438Y-57935904D01*
X147902438Y-57935904D02*
X147854819Y-57840666D01*
X147854819Y-57840666D02*
X147854819Y-57602571D01*
X147854819Y-57602571D02*
X147902438Y-57507333D01*
X147902438Y-57507333D02*
X147950057Y-57459714D01*
X147950057Y-57459714D02*
X148045295Y-57412095D01*
X148045295Y-57412095D02*
X148140533Y-57412095D01*
X148140533Y-57412095D02*
X148283390Y-57459714D01*
X148283390Y-57459714D02*
X148854819Y-58031142D01*
X148854819Y-58031142D02*
X148854819Y-57412095D01*
X230016667Y-58547200D02*
X230159524Y-58594819D01*
X230159524Y-58594819D02*
X230397619Y-58594819D01*
X230397619Y-58594819D02*
X230492857Y-58547200D01*
X230492857Y-58547200D02*
X230540476Y-58499580D01*
X230540476Y-58499580D02*
X230588095Y-58404342D01*
X230588095Y-58404342D02*
X230588095Y-58309104D01*
X230588095Y-58309104D02*
X230540476Y-58213866D01*
X230540476Y-58213866D02*
X230492857Y-58166247D01*
X230492857Y-58166247D02*
X230397619Y-58118628D01*
X230397619Y-58118628D02*
X230207143Y-58071009D01*
X230207143Y-58071009D02*
X230111905Y-58023390D01*
X230111905Y-58023390D02*
X230064286Y-57975771D01*
X230064286Y-57975771D02*
X230016667Y-57880533D01*
X230016667Y-57880533D02*
X230016667Y-57785295D01*
X230016667Y-57785295D02*
X230064286Y-57690057D01*
X230064286Y-57690057D02*
X230111905Y-57642438D01*
X230111905Y-57642438D02*
X230207143Y-57594819D01*
X230207143Y-57594819D02*
X230445238Y-57594819D01*
X230445238Y-57594819D02*
X230588095Y-57642438D01*
X230921429Y-57594819D02*
X231159524Y-58594819D01*
X231159524Y-58594819D02*
X231350000Y-57880533D01*
X231350000Y-57880533D02*
X231540476Y-58594819D01*
X231540476Y-58594819D02*
X231778572Y-57594819D01*
X232111905Y-57690057D02*
X232159524Y-57642438D01*
X232159524Y-57642438D02*
X232254762Y-57594819D01*
X232254762Y-57594819D02*
X232492857Y-57594819D01*
X232492857Y-57594819D02*
X232588095Y-57642438D01*
X232588095Y-57642438D02*
X232635714Y-57690057D01*
X232635714Y-57690057D02*
X232683333Y-57785295D01*
X232683333Y-57785295D02*
X232683333Y-57880533D01*
X232683333Y-57880533D02*
X232635714Y-58023390D01*
X232635714Y-58023390D02*
X232064286Y-58594819D01*
X232064286Y-58594819D02*
X232683333Y-58594819D01*
X158480951Y-87668106D02*
X158480951Y-86398106D01*
X158480951Y-86398106D02*
X158904285Y-87305249D01*
X158904285Y-87305249D02*
X159327618Y-86398106D01*
X159327618Y-86398106D02*
X159327618Y-87668106D01*
X159932380Y-87668106D02*
X159932380Y-86821439D01*
X159932380Y-86398106D02*
X159871904Y-86458582D01*
X159871904Y-86458582D02*
X159932380Y-86519058D01*
X159932380Y-86519058D02*
X159992857Y-86458582D01*
X159992857Y-86458582D02*
X159932380Y-86398106D01*
X159932380Y-86398106D02*
X159932380Y-86519058D01*
X160537142Y-86821439D02*
X160537142Y-87668106D01*
X160537142Y-86942391D02*
X160597619Y-86881915D01*
X160597619Y-86881915D02*
X160718571Y-86821439D01*
X160718571Y-86821439D02*
X160900000Y-86821439D01*
X160900000Y-86821439D02*
X161020952Y-86881915D01*
X161020952Y-86881915D02*
X161081428Y-87002868D01*
X161081428Y-87002868D02*
X161081428Y-87668106D01*
X161625714Y-87607630D02*
X161746667Y-87668106D01*
X161746667Y-87668106D02*
X161988571Y-87668106D01*
X161988571Y-87668106D02*
X162109524Y-87607630D01*
X162109524Y-87607630D02*
X162170000Y-87486677D01*
X162170000Y-87486677D02*
X162170000Y-87426201D01*
X162170000Y-87426201D02*
X162109524Y-87305249D01*
X162109524Y-87305249D02*
X161988571Y-87244772D01*
X161988571Y-87244772D02*
X161807143Y-87244772D01*
X161807143Y-87244772D02*
X161686190Y-87184296D01*
X161686190Y-87184296D02*
X161625714Y-87063344D01*
X161625714Y-87063344D02*
X161625714Y-87002868D01*
X161625714Y-87002868D02*
X161686190Y-86881915D01*
X161686190Y-86881915D02*
X161807143Y-86821439D01*
X161807143Y-86821439D02*
X161988571Y-86821439D01*
X161988571Y-86821439D02*
X162109524Y-86881915D01*
X162653809Y-86519058D02*
X162714285Y-86458582D01*
X162714285Y-86458582D02*
X162835238Y-86398106D01*
X162835238Y-86398106D02*
X163137619Y-86398106D01*
X163137619Y-86398106D02*
X163258571Y-86458582D01*
X163258571Y-86458582D02*
X163319047Y-86519058D01*
X163319047Y-86519058D02*
X163379524Y-86640010D01*
X163379524Y-86640010D02*
X163379524Y-86760963D01*
X163379524Y-86760963D02*
X163319047Y-86942391D01*
X163319047Y-86942391D02*
X162593333Y-87668106D01*
X162593333Y-87668106D02*
X163379524Y-87668106D01*
X127433333Y-60554819D02*
X127100000Y-60078628D01*
X126861905Y-60554819D02*
X126861905Y-59554819D01*
X126861905Y-59554819D02*
X127242857Y-59554819D01*
X127242857Y-59554819D02*
X127338095Y-59602438D01*
X127338095Y-59602438D02*
X127385714Y-59650057D01*
X127385714Y-59650057D02*
X127433333Y-59745295D01*
X127433333Y-59745295D02*
X127433333Y-59888152D01*
X127433333Y-59888152D02*
X127385714Y-59983390D01*
X127385714Y-59983390D02*
X127338095Y-60031009D01*
X127338095Y-60031009D02*
X127242857Y-60078628D01*
X127242857Y-60078628D02*
X126861905Y-60078628D01*
X128385714Y-60554819D02*
X127814286Y-60554819D01*
X128100000Y-60554819D02*
X128100000Y-59554819D01*
X128100000Y-59554819D02*
X128004762Y-59697676D01*
X128004762Y-59697676D02*
X127909524Y-59792914D01*
X127909524Y-59792914D02*
X127814286Y-59840533D01*
X79638095Y-107394819D02*
X79638095Y-108204342D01*
X79638095Y-108204342D02*
X79685714Y-108299580D01*
X79685714Y-108299580D02*
X79733333Y-108347200D01*
X79733333Y-108347200D02*
X79828571Y-108394819D01*
X79828571Y-108394819D02*
X80019047Y-108394819D01*
X80019047Y-108394819D02*
X80114285Y-108347200D01*
X80114285Y-108347200D02*
X80161904Y-108299580D01*
X80161904Y-108299580D02*
X80209523Y-108204342D01*
X80209523Y-108204342D02*
X80209523Y-107394819D01*
X81114285Y-107728152D02*
X81114285Y-108394819D01*
X80876190Y-107347200D02*
X80638095Y-108061485D01*
X80638095Y-108061485D02*
X81257142Y-108061485D01*
X191408095Y-107404819D02*
X191408095Y-108214342D01*
X191408095Y-108214342D02*
X191455714Y-108309580D01*
X191455714Y-108309580D02*
X191503333Y-108357200D01*
X191503333Y-108357200D02*
X191598571Y-108404819D01*
X191598571Y-108404819D02*
X191789047Y-108404819D01*
X191789047Y-108404819D02*
X191884285Y-108357200D01*
X191884285Y-108357200D02*
X191931904Y-108309580D01*
X191931904Y-108309580D02*
X191979523Y-108214342D01*
X191979523Y-108214342D02*
X191979523Y-107404819D01*
X192931904Y-107404819D02*
X192455714Y-107404819D01*
X192455714Y-107404819D02*
X192408095Y-107881009D01*
X192408095Y-107881009D02*
X192455714Y-107833390D01*
X192455714Y-107833390D02*
X192550952Y-107785771D01*
X192550952Y-107785771D02*
X192789047Y-107785771D01*
X192789047Y-107785771D02*
X192884285Y-107833390D01*
X192884285Y-107833390D02*
X192931904Y-107881009D01*
X192931904Y-107881009D02*
X192979523Y-107976247D01*
X192979523Y-107976247D02*
X192979523Y-108214342D01*
X192979523Y-108214342D02*
X192931904Y-108309580D01*
X192931904Y-108309580D02*
X192884285Y-108357200D01*
X192884285Y-108357200D02*
X192789047Y-108404819D01*
X192789047Y-108404819D02*
X192550952Y-108404819D01*
X192550952Y-108404819D02*
X192455714Y-108357200D01*
X192455714Y-108357200D02*
X192408095Y-108309580D01*
X161171615Y-77463199D02*
X160838282Y-76987008D01*
X160600187Y-77463199D02*
X160600187Y-76463199D01*
X160600187Y-76463199D02*
X160981139Y-76463199D01*
X160981139Y-76463199D02*
X161076377Y-76510818D01*
X161076377Y-76510818D02*
X161123996Y-76558437D01*
X161123996Y-76558437D02*
X161171615Y-76653675D01*
X161171615Y-76653675D02*
X161171615Y-76796532D01*
X161171615Y-76796532D02*
X161123996Y-76891770D01*
X161123996Y-76891770D02*
X161076377Y-76939389D01*
X161076377Y-76939389D02*
X160981139Y-76987008D01*
X160981139Y-76987008D02*
X160600187Y-76987008D01*
X162123996Y-77463199D02*
X161552568Y-77463199D01*
X161838282Y-77463199D02*
X161838282Y-76463199D01*
X161838282Y-76463199D02*
X161743044Y-76606056D01*
X161743044Y-76606056D02*
X161647806Y-76701294D01*
X161647806Y-76701294D02*
X161552568Y-76748913D01*
X162743044Y-76463199D02*
X162838282Y-76463199D01*
X162838282Y-76463199D02*
X162933520Y-76510818D01*
X162933520Y-76510818D02*
X162981139Y-76558437D01*
X162981139Y-76558437D02*
X163028758Y-76653675D01*
X163028758Y-76653675D02*
X163076377Y-76844151D01*
X163076377Y-76844151D02*
X163076377Y-77082246D01*
X163076377Y-77082246D02*
X163028758Y-77272722D01*
X163028758Y-77272722D02*
X162981139Y-77367960D01*
X162981139Y-77367960D02*
X162933520Y-77415580D01*
X162933520Y-77415580D02*
X162838282Y-77463199D01*
X162838282Y-77463199D02*
X162743044Y-77463199D01*
X162743044Y-77463199D02*
X162647806Y-77415580D01*
X162647806Y-77415580D02*
X162600187Y-77367960D01*
X162600187Y-77367960D02*
X162552568Y-77272722D01*
X162552568Y-77272722D02*
X162504949Y-77082246D01*
X162504949Y-77082246D02*
X162504949Y-76844151D01*
X162504949Y-76844151D02*
X162552568Y-76653675D01*
X162552568Y-76653675D02*
X162600187Y-76558437D01*
X162600187Y-76558437D02*
X162647806Y-76510818D01*
X162647806Y-76510818D02*
X162743044Y-76463199D01*
X137733333Y-117159580D02*
X137685714Y-117207200D01*
X137685714Y-117207200D02*
X137542857Y-117254819D01*
X137542857Y-117254819D02*
X137447619Y-117254819D01*
X137447619Y-117254819D02*
X137304762Y-117207200D01*
X137304762Y-117207200D02*
X137209524Y-117111961D01*
X137209524Y-117111961D02*
X137161905Y-117016723D01*
X137161905Y-117016723D02*
X137114286Y-116826247D01*
X137114286Y-116826247D02*
X137114286Y-116683390D01*
X137114286Y-116683390D02*
X137161905Y-116492914D01*
X137161905Y-116492914D02*
X137209524Y-116397676D01*
X137209524Y-116397676D02*
X137304762Y-116302438D01*
X137304762Y-116302438D02*
X137447619Y-116254819D01*
X137447619Y-116254819D02*
X137542857Y-116254819D01*
X137542857Y-116254819D02*
X137685714Y-116302438D01*
X137685714Y-116302438D02*
X137733333Y-116350057D01*
X138590476Y-116254819D02*
X138400000Y-116254819D01*
X138400000Y-116254819D02*
X138304762Y-116302438D01*
X138304762Y-116302438D02*
X138257143Y-116350057D01*
X138257143Y-116350057D02*
X138161905Y-116492914D01*
X138161905Y-116492914D02*
X138114286Y-116683390D01*
X138114286Y-116683390D02*
X138114286Y-117064342D01*
X138114286Y-117064342D02*
X138161905Y-117159580D01*
X138161905Y-117159580D02*
X138209524Y-117207200D01*
X138209524Y-117207200D02*
X138304762Y-117254819D01*
X138304762Y-117254819D02*
X138495238Y-117254819D01*
X138495238Y-117254819D02*
X138590476Y-117207200D01*
X138590476Y-117207200D02*
X138638095Y-117159580D01*
X138638095Y-117159580D02*
X138685714Y-117064342D01*
X138685714Y-117064342D02*
X138685714Y-116826247D01*
X138685714Y-116826247D02*
X138638095Y-116731009D01*
X138638095Y-116731009D02*
X138590476Y-116683390D01*
X138590476Y-116683390D02*
X138495238Y-116635771D01*
X138495238Y-116635771D02*
X138304762Y-116635771D01*
X138304762Y-116635771D02*
X138209524Y-116683390D01*
X138209524Y-116683390D02*
X138161905Y-116731009D01*
X138161905Y-116731009D02*
X138114286Y-116826247D01*
X83133333Y-117209580D02*
X83085714Y-117257200D01*
X83085714Y-117257200D02*
X82942857Y-117304819D01*
X82942857Y-117304819D02*
X82847619Y-117304819D01*
X82847619Y-117304819D02*
X82704762Y-117257200D01*
X82704762Y-117257200D02*
X82609524Y-117161961D01*
X82609524Y-117161961D02*
X82561905Y-117066723D01*
X82561905Y-117066723D02*
X82514286Y-116876247D01*
X82514286Y-116876247D02*
X82514286Y-116733390D01*
X82514286Y-116733390D02*
X82561905Y-116542914D01*
X82561905Y-116542914D02*
X82609524Y-116447676D01*
X82609524Y-116447676D02*
X82704762Y-116352438D01*
X82704762Y-116352438D02*
X82847619Y-116304819D01*
X82847619Y-116304819D02*
X82942857Y-116304819D01*
X82942857Y-116304819D02*
X83085714Y-116352438D01*
X83085714Y-116352438D02*
X83133333Y-116400057D01*
X83990476Y-116638152D02*
X83990476Y-117304819D01*
X83752381Y-116257200D02*
X83514286Y-116971485D01*
X83514286Y-116971485D02*
X84133333Y-116971485D01*
X115757142Y-62589580D02*
X115709523Y-62637200D01*
X115709523Y-62637200D02*
X115566666Y-62684819D01*
X115566666Y-62684819D02*
X115471428Y-62684819D01*
X115471428Y-62684819D02*
X115328571Y-62637200D01*
X115328571Y-62637200D02*
X115233333Y-62541961D01*
X115233333Y-62541961D02*
X115185714Y-62446723D01*
X115185714Y-62446723D02*
X115138095Y-62256247D01*
X115138095Y-62256247D02*
X115138095Y-62113390D01*
X115138095Y-62113390D02*
X115185714Y-61922914D01*
X115185714Y-61922914D02*
X115233333Y-61827676D01*
X115233333Y-61827676D02*
X115328571Y-61732438D01*
X115328571Y-61732438D02*
X115471428Y-61684819D01*
X115471428Y-61684819D02*
X115566666Y-61684819D01*
X115566666Y-61684819D02*
X115709523Y-61732438D01*
X115709523Y-61732438D02*
X115757142Y-61780057D01*
X116709523Y-62684819D02*
X116138095Y-62684819D01*
X116423809Y-62684819D02*
X116423809Y-61684819D01*
X116423809Y-61684819D02*
X116328571Y-61827676D01*
X116328571Y-61827676D02*
X116233333Y-61922914D01*
X116233333Y-61922914D02*
X116138095Y-61970533D01*
X117328571Y-61684819D02*
X117423809Y-61684819D01*
X117423809Y-61684819D02*
X117519047Y-61732438D01*
X117519047Y-61732438D02*
X117566666Y-61780057D01*
X117566666Y-61780057D02*
X117614285Y-61875295D01*
X117614285Y-61875295D02*
X117661904Y-62065771D01*
X117661904Y-62065771D02*
X117661904Y-62303866D01*
X117661904Y-62303866D02*
X117614285Y-62494342D01*
X117614285Y-62494342D02*
X117566666Y-62589580D01*
X117566666Y-62589580D02*
X117519047Y-62637200D01*
X117519047Y-62637200D02*
X117423809Y-62684819D01*
X117423809Y-62684819D02*
X117328571Y-62684819D01*
X117328571Y-62684819D02*
X117233333Y-62637200D01*
X117233333Y-62637200D02*
X117185714Y-62589580D01*
X117185714Y-62589580D02*
X117138095Y-62494342D01*
X117138095Y-62494342D02*
X117090476Y-62303866D01*
X117090476Y-62303866D02*
X117090476Y-62065771D01*
X117090476Y-62065771D02*
X117138095Y-61875295D01*
X117138095Y-61875295D02*
X117185714Y-61780057D01*
X117185714Y-61780057D02*
X117233333Y-61732438D01*
X117233333Y-61732438D02*
X117328571Y-61684819D01*
X159318095Y-107404819D02*
X159318095Y-108214342D01*
X159318095Y-108214342D02*
X159365714Y-108309580D01*
X159365714Y-108309580D02*
X159413333Y-108357200D01*
X159413333Y-108357200D02*
X159508571Y-108404819D01*
X159508571Y-108404819D02*
X159699047Y-108404819D01*
X159699047Y-108404819D02*
X159794285Y-108357200D01*
X159794285Y-108357200D02*
X159841904Y-108309580D01*
X159841904Y-108309580D02*
X159889523Y-108214342D01*
X159889523Y-108214342D02*
X159889523Y-107404819D01*
X160508571Y-107833390D02*
X160413333Y-107785771D01*
X160413333Y-107785771D02*
X160365714Y-107738152D01*
X160365714Y-107738152D02*
X160318095Y-107642914D01*
X160318095Y-107642914D02*
X160318095Y-107595295D01*
X160318095Y-107595295D02*
X160365714Y-107500057D01*
X160365714Y-107500057D02*
X160413333Y-107452438D01*
X160413333Y-107452438D02*
X160508571Y-107404819D01*
X160508571Y-107404819D02*
X160699047Y-107404819D01*
X160699047Y-107404819D02*
X160794285Y-107452438D01*
X160794285Y-107452438D02*
X160841904Y-107500057D01*
X160841904Y-107500057D02*
X160889523Y-107595295D01*
X160889523Y-107595295D02*
X160889523Y-107642914D01*
X160889523Y-107642914D02*
X160841904Y-107738152D01*
X160841904Y-107738152D02*
X160794285Y-107785771D01*
X160794285Y-107785771D02*
X160699047Y-107833390D01*
X160699047Y-107833390D02*
X160508571Y-107833390D01*
X160508571Y-107833390D02*
X160413333Y-107881009D01*
X160413333Y-107881009D02*
X160365714Y-107928628D01*
X160365714Y-107928628D02*
X160318095Y-108023866D01*
X160318095Y-108023866D02*
X160318095Y-108214342D01*
X160318095Y-108214342D02*
X160365714Y-108309580D01*
X160365714Y-108309580D02*
X160413333Y-108357200D01*
X160413333Y-108357200D02*
X160508571Y-108404819D01*
X160508571Y-108404819D02*
X160699047Y-108404819D01*
X160699047Y-108404819D02*
X160794285Y-108357200D01*
X160794285Y-108357200D02*
X160841904Y-108309580D01*
X160841904Y-108309580D02*
X160889523Y-108214342D01*
X160889523Y-108214342D02*
X160889523Y-108023866D01*
X160889523Y-108023866D02*
X160841904Y-107928628D01*
X160841904Y-107928628D02*
X160794285Y-107881009D01*
X160794285Y-107881009D02*
X160699047Y-107833390D01*
X102876190Y-87589366D02*
X102876190Y-86319366D01*
X102876190Y-86924128D02*
X103601905Y-86924128D01*
X103601905Y-87589366D02*
X103601905Y-86319366D01*
X104388095Y-87589366D02*
X104267143Y-87528890D01*
X104267143Y-87528890D02*
X104206666Y-87468413D01*
X104206666Y-87468413D02*
X104146190Y-87347461D01*
X104146190Y-87347461D02*
X104146190Y-86984604D01*
X104146190Y-86984604D02*
X104206666Y-86863651D01*
X104206666Y-86863651D02*
X104267143Y-86803175D01*
X104267143Y-86803175D02*
X104388095Y-86742699D01*
X104388095Y-86742699D02*
X104569524Y-86742699D01*
X104569524Y-86742699D02*
X104690476Y-86803175D01*
X104690476Y-86803175D02*
X104750952Y-86863651D01*
X104750952Y-86863651D02*
X104811428Y-86984604D01*
X104811428Y-86984604D02*
X104811428Y-87347461D01*
X104811428Y-87347461D02*
X104750952Y-87468413D01*
X104750952Y-87468413D02*
X104690476Y-87528890D01*
X104690476Y-87528890D02*
X104569524Y-87589366D01*
X104569524Y-87589366D02*
X104388095Y-87589366D01*
X105900000Y-86742699D02*
X105900000Y-87589366D01*
X105355714Y-86742699D02*
X105355714Y-87407937D01*
X105355714Y-87407937D02*
X105416191Y-87528890D01*
X105416191Y-87528890D02*
X105537143Y-87589366D01*
X105537143Y-87589366D02*
X105718572Y-87589366D01*
X105718572Y-87589366D02*
X105839524Y-87528890D01*
X105839524Y-87528890D02*
X105900000Y-87468413D01*
X106504762Y-87589366D02*
X106504762Y-86742699D01*
X106504762Y-86984604D02*
X106565239Y-86863651D01*
X106565239Y-86863651D02*
X106625715Y-86803175D01*
X106625715Y-86803175D02*
X106746667Y-86742699D01*
X106746667Y-86742699D02*
X106867620Y-86742699D01*
X107230476Y-87528890D02*
X107351429Y-87589366D01*
X107351429Y-87589366D02*
X107593333Y-87589366D01*
X107593333Y-87589366D02*
X107714286Y-87528890D01*
X107714286Y-87528890D02*
X107774762Y-87407937D01*
X107774762Y-87407937D02*
X107774762Y-87347461D01*
X107774762Y-87347461D02*
X107714286Y-87226509D01*
X107714286Y-87226509D02*
X107593333Y-87166032D01*
X107593333Y-87166032D02*
X107411905Y-87166032D01*
X107411905Y-87166032D02*
X107290952Y-87105556D01*
X107290952Y-87105556D02*
X107230476Y-86984604D01*
X107230476Y-86984604D02*
X107230476Y-86924128D01*
X107230476Y-86924128D02*
X107290952Y-86803175D01*
X107290952Y-86803175D02*
X107411905Y-86742699D01*
X107411905Y-86742699D02*
X107593333Y-86742699D01*
X107593333Y-86742699D02*
X107714286Y-86803175D01*
X108258571Y-86440318D02*
X108319047Y-86379842D01*
X108319047Y-86379842D02*
X108440000Y-86319366D01*
X108440000Y-86319366D02*
X108742381Y-86319366D01*
X108742381Y-86319366D02*
X108863333Y-86379842D01*
X108863333Y-86379842D02*
X108923809Y-86440318D01*
X108923809Y-86440318D02*
X108984286Y-86561270D01*
X108984286Y-86561270D02*
X108984286Y-86682223D01*
X108984286Y-86682223D02*
X108923809Y-86863651D01*
X108923809Y-86863651D02*
X108198095Y-87589366D01*
X108198095Y-87589366D02*
X108984286Y-87589366D01*
X217503333Y-77541939D02*
X217170000Y-77065748D01*
X216931905Y-77541939D02*
X216931905Y-76541939D01*
X216931905Y-76541939D02*
X217312857Y-76541939D01*
X217312857Y-76541939D02*
X217408095Y-76589558D01*
X217408095Y-76589558D02*
X217455714Y-76637177D01*
X217455714Y-76637177D02*
X217503333Y-76732415D01*
X217503333Y-76732415D02*
X217503333Y-76875272D01*
X217503333Y-76875272D02*
X217455714Y-76970510D01*
X217455714Y-76970510D02*
X217408095Y-77018129D01*
X217408095Y-77018129D02*
X217312857Y-77065748D01*
X217312857Y-77065748D02*
X216931905Y-77065748D01*
X218360476Y-76541939D02*
X218170000Y-76541939D01*
X218170000Y-76541939D02*
X218074762Y-76589558D01*
X218074762Y-76589558D02*
X218027143Y-76637177D01*
X218027143Y-76637177D02*
X217931905Y-76780034D01*
X217931905Y-76780034D02*
X217884286Y-76970510D01*
X217884286Y-76970510D02*
X217884286Y-77351462D01*
X217884286Y-77351462D02*
X217931905Y-77446700D01*
X217931905Y-77446700D02*
X217979524Y-77494320D01*
X217979524Y-77494320D02*
X218074762Y-77541939D01*
X218074762Y-77541939D02*
X218265238Y-77541939D01*
X218265238Y-77541939D02*
X218360476Y-77494320D01*
X218360476Y-77494320D02*
X218408095Y-77446700D01*
X218408095Y-77446700D02*
X218455714Y-77351462D01*
X218455714Y-77351462D02*
X218455714Y-77113367D01*
X218455714Y-77113367D02*
X218408095Y-77018129D01*
X218408095Y-77018129D02*
X218360476Y-76970510D01*
X218360476Y-76970510D02*
X218265238Y-76922891D01*
X218265238Y-76922891D02*
X218074762Y-76922891D01*
X218074762Y-76922891D02*
X217979524Y-76970510D01*
X217979524Y-76970510D02*
X217931905Y-77018129D01*
X217931905Y-77018129D02*
X217884286Y-77113367D01*
X138480951Y-87668106D02*
X138480951Y-86398106D01*
X138480951Y-86398106D02*
X138904285Y-87305249D01*
X138904285Y-87305249D02*
X139327618Y-86398106D01*
X139327618Y-86398106D02*
X139327618Y-87668106D01*
X139932380Y-87668106D02*
X139932380Y-86821439D01*
X139932380Y-86398106D02*
X139871904Y-86458582D01*
X139871904Y-86458582D02*
X139932380Y-86519058D01*
X139932380Y-86519058D02*
X139992857Y-86458582D01*
X139992857Y-86458582D02*
X139932380Y-86398106D01*
X139932380Y-86398106D02*
X139932380Y-86519058D01*
X140537142Y-86821439D02*
X140537142Y-87668106D01*
X140537142Y-86942391D02*
X140597619Y-86881915D01*
X140597619Y-86881915D02*
X140718571Y-86821439D01*
X140718571Y-86821439D02*
X140900000Y-86821439D01*
X140900000Y-86821439D02*
X141020952Y-86881915D01*
X141020952Y-86881915D02*
X141081428Y-87002868D01*
X141081428Y-87002868D02*
X141081428Y-87668106D01*
X141625714Y-87607630D02*
X141746667Y-87668106D01*
X141746667Y-87668106D02*
X141988571Y-87668106D01*
X141988571Y-87668106D02*
X142109524Y-87607630D01*
X142109524Y-87607630D02*
X142170000Y-87486677D01*
X142170000Y-87486677D02*
X142170000Y-87426201D01*
X142170000Y-87426201D02*
X142109524Y-87305249D01*
X142109524Y-87305249D02*
X141988571Y-87244772D01*
X141988571Y-87244772D02*
X141807143Y-87244772D01*
X141807143Y-87244772D02*
X141686190Y-87184296D01*
X141686190Y-87184296D02*
X141625714Y-87063344D01*
X141625714Y-87063344D02*
X141625714Y-87002868D01*
X141625714Y-87002868D02*
X141686190Y-86881915D01*
X141686190Y-86881915D02*
X141807143Y-86821439D01*
X141807143Y-86821439D02*
X141988571Y-86821439D01*
X141988571Y-86821439D02*
X142109524Y-86881915D01*
X143379524Y-87668106D02*
X142653809Y-87668106D01*
X143016666Y-87668106D02*
X143016666Y-86398106D01*
X143016666Y-86398106D02*
X142895714Y-86579534D01*
X142895714Y-86579534D02*
X142774762Y-86700487D01*
X142774762Y-86700487D02*
X142653809Y-86760963D01*
X113233333Y-54654819D02*
X112900000Y-54178628D01*
X112661905Y-54654819D02*
X112661905Y-53654819D01*
X112661905Y-53654819D02*
X113042857Y-53654819D01*
X113042857Y-53654819D02*
X113138095Y-53702438D01*
X113138095Y-53702438D02*
X113185714Y-53750057D01*
X113185714Y-53750057D02*
X113233333Y-53845295D01*
X113233333Y-53845295D02*
X113233333Y-53988152D01*
X113233333Y-53988152D02*
X113185714Y-54083390D01*
X113185714Y-54083390D02*
X113138095Y-54131009D01*
X113138095Y-54131009D02*
X113042857Y-54178628D01*
X113042857Y-54178628D02*
X112661905Y-54178628D01*
X113566667Y-53654819D02*
X114185714Y-53654819D01*
X114185714Y-53654819D02*
X113852381Y-54035771D01*
X113852381Y-54035771D02*
X113995238Y-54035771D01*
X113995238Y-54035771D02*
X114090476Y-54083390D01*
X114090476Y-54083390D02*
X114138095Y-54131009D01*
X114138095Y-54131009D02*
X114185714Y-54226247D01*
X114185714Y-54226247D02*
X114185714Y-54464342D01*
X114185714Y-54464342D02*
X114138095Y-54559580D01*
X114138095Y-54559580D02*
X114090476Y-54607200D01*
X114090476Y-54607200D02*
X113995238Y-54654819D01*
X113995238Y-54654819D02*
X113709524Y-54654819D01*
X113709524Y-54654819D02*
X113614286Y-54607200D01*
X113614286Y-54607200D02*
X113566667Y-54559580D01*
X115933333Y-73159580D02*
X115885714Y-73207200D01*
X115885714Y-73207200D02*
X115742857Y-73254819D01*
X115742857Y-73254819D02*
X115647619Y-73254819D01*
X115647619Y-73254819D02*
X115504762Y-73207200D01*
X115504762Y-73207200D02*
X115409524Y-73111961D01*
X115409524Y-73111961D02*
X115361905Y-73016723D01*
X115361905Y-73016723D02*
X115314286Y-72826247D01*
X115314286Y-72826247D02*
X115314286Y-72683390D01*
X115314286Y-72683390D02*
X115361905Y-72492914D01*
X115361905Y-72492914D02*
X115409524Y-72397676D01*
X115409524Y-72397676D02*
X115504762Y-72302438D01*
X115504762Y-72302438D02*
X115647619Y-72254819D01*
X115647619Y-72254819D02*
X115742857Y-72254819D01*
X115742857Y-72254819D02*
X115885714Y-72302438D01*
X115885714Y-72302438D02*
X115933333Y-72350057D01*
X116314286Y-72350057D02*
X116361905Y-72302438D01*
X116361905Y-72302438D02*
X116457143Y-72254819D01*
X116457143Y-72254819D02*
X116695238Y-72254819D01*
X116695238Y-72254819D02*
X116790476Y-72302438D01*
X116790476Y-72302438D02*
X116838095Y-72350057D01*
X116838095Y-72350057D02*
X116885714Y-72445295D01*
X116885714Y-72445295D02*
X116885714Y-72540533D01*
X116885714Y-72540533D02*
X116838095Y-72683390D01*
X116838095Y-72683390D02*
X116266667Y-73254819D01*
X116266667Y-73254819D02*
X116885714Y-73254819D01*
X120575000Y-63925000D02*
X120575000Y-64150000D01*
X120575000Y-63925000D02*
X120900000Y-63925000D01*
X120575000Y-71175000D02*
X120575000Y-70850000D01*
X120575000Y-71175000D02*
X120900000Y-71175000D01*
X127825000Y-63925000D02*
X127500000Y-63925000D01*
X127825000Y-63925000D02*
X127825000Y-64250000D01*
X127825000Y-71175000D02*
X127500000Y-71175000D01*
X127825000Y-71175000D02*
X127825000Y-70850000D01*
D12*
X119810000Y-64210000D02*
X119470000Y-63740000D01*
X120150000Y-63740000D01*
X119810000Y-64210000D01*
G36*
X119810000Y-64210000D02*
G01*
X119470000Y-63740000D01*
X120150000Y-63740000D01*
X119810000Y-64210000D01*
G37*
X146230000Y-51300000D02*
X146230000Y-53000000D01*
X155570000Y-51300000D02*
X155570000Y-53000000D01*
X192840000Y-75167120D02*
X193790000Y-75167120D01*
X193790000Y-74247120D02*
X193790000Y-76087120D01*
X193790000Y-76087120D02*
X197630000Y-76087120D01*
X197630000Y-74247120D02*
X193790000Y-74247120D01*
X197630000Y-76087120D02*
X197630000Y-74247120D01*
X198580000Y-75167120D02*
X197630000Y-75167120D01*
X231065000Y-87872936D02*
X231065000Y-88327064D01*
X232535000Y-87872936D02*
X232535000Y-88327064D01*
D10*
X95858500Y-71850000D02*
X111958500Y-71850000D01*
X111958500Y-66750000D02*
X95858500Y-66750000D01*
X111958500Y-71850000D02*
X111958500Y-66750000D01*
D12*
X132804248Y-68686000D02*
X134226752Y-68686000D01*
X132804248Y-70506000D02*
X134226752Y-70506000D01*
X116911252Y-66390000D02*
X115488748Y-66390000D01*
X116911252Y-68210000D02*
X115488748Y-68210000D01*
D13*
G36*
X168032262Y-60630667D02*
G01*
X167981082Y-60687482D01*
X167904733Y-60772279D01*
X167807772Y-60879995D01*
X167694754Y-61005569D01*
X167570235Y-61143939D01*
X167438769Y-61290044D01*
X167317247Y-61425111D01*
X166757458Y-62047334D01*
X167392442Y-62058445D01*
X168027426Y-62069556D01*
X166760657Y-63336149D01*
X166564330Y-63532230D01*
X166377314Y-63718585D01*
X166201946Y-63892910D01*
X166040565Y-64052902D01*
X165895507Y-64196256D01*
X165769111Y-64320669D01*
X165663714Y-64423837D01*
X165581654Y-64503456D01*
X165525269Y-64557223D01*
X165496896Y-64582832D01*
X165493888Y-64584586D01*
X165502933Y-64561398D01*
X165528877Y-64501826D01*
X165569934Y-64409809D01*
X165624318Y-64289291D01*
X165690242Y-64144211D01*
X165765922Y-63978511D01*
X165849570Y-63796132D01*
X165939400Y-63601015D01*
X165952072Y-63573548D01*
X166042938Y-63376561D01*
X166128243Y-63191468D01*
X166206152Y-63022263D01*
X166274832Y-62872938D01*
X166332446Y-62747486D01*
X166377160Y-62649900D01*
X166407138Y-62584172D01*
X166420546Y-62554296D01*
X166420968Y-62553275D01*
X166414575Y-62544327D01*
X166385033Y-62537119D01*
X166328408Y-62531411D01*
X166240769Y-62526962D01*
X166118183Y-62523529D01*
X165956718Y-62520873D01*
X165877403Y-62519942D01*
X165323126Y-62514000D01*
X165955345Y-61486223D01*
X166587563Y-60458445D01*
X167387525Y-60458445D01*
X168187486Y-60458445D01*
X168032262Y-60630667D01*
G37*
G36*
X167153291Y-56159976D02*
G01*
X167280129Y-56215465D01*
X167386307Y-56301863D01*
X167406164Y-56325211D01*
X167426838Y-56356491D01*
X167467815Y-56423196D01*
X167527265Y-56522210D01*
X167603357Y-56650415D01*
X167694261Y-56804696D01*
X167798148Y-56981935D01*
X167913188Y-57179017D01*
X168037549Y-57392825D01*
X168169402Y-57620241D01*
X168306917Y-57858150D01*
X168339140Y-57914000D01*
X168591919Y-58352268D01*
X168846009Y-58792764D01*
X169100239Y-59233458D01*
X169353436Y-59672320D01*
X169604428Y-60107323D01*
X169852045Y-60536436D01*
X170095114Y-60957629D01*
X170332465Y-61368874D01*
X170562925Y-61768142D01*
X170785323Y-62153402D01*
X170998486Y-62522626D01*
X171201245Y-62873784D01*
X171392426Y-63204847D01*
X171570859Y-63513785D01*
X171735372Y-63798570D01*
X171884792Y-64057171D01*
X172017949Y-64287559D01*
X172133672Y-64487706D01*
X172230787Y-64655581D01*
X172308124Y-64789156D01*
X172364511Y-64886401D01*
X172367634Y-64891778D01*
X172458637Y-65048595D01*
X172529879Y-65172178D01*
X172583900Y-65267739D01*
X172623239Y-65340488D01*
X172650435Y-65395635D01*
X172668028Y-65438393D01*
X172678559Y-65473972D01*
X172684565Y-65507582D01*
X172688588Y-65544436D01*
X172689295Y-65551793D01*
X172681105Y-65688241D01*
X172634000Y-65820591D01*
X172553219Y-65939670D01*
X172443999Y-66036307D01*
X172395992Y-66065309D01*
X172305000Y-66114000D01*
X167049444Y-66117374D01*
X166568445Y-66117614D01*
X166098753Y-66117715D01*
X165642335Y-66117680D01*
X165201158Y-66117515D01*
X164777190Y-66117224D01*
X164372398Y-66116812D01*
X163988750Y-66116284D01*
X163628214Y-66115645D01*
X163292756Y-66114900D01*
X162984344Y-66114052D01*
X162704945Y-66113108D01*
X162456528Y-66112072D01*
X162241059Y-66110948D01*
X162060506Y-66109742D01*
X161916837Y-66108458D01*
X161812018Y-66107101D01*
X161748018Y-66105676D01*
X161727222Y-66104425D01*
X161586970Y-66047914D01*
X161468421Y-65953741D01*
X161375194Y-65824846D01*
X161369396Y-65814000D01*
X161337429Y-65715455D01*
X161327354Y-65596253D01*
X161338818Y-65474215D01*
X161371472Y-65367163D01*
X161378471Y-65352936D01*
X161398190Y-65317294D01*
X161438106Y-65246761D01*
X161496165Y-65144919D01*
X161545651Y-65058445D01*
X162756930Y-65058445D01*
X167003699Y-65058445D01*
X171250469Y-65058445D01*
X171218741Y-65008445D01*
X171203404Y-64982547D01*
X171167410Y-64920796D01*
X171112291Y-64825846D01*
X171039583Y-64700348D01*
X170950819Y-64546958D01*
X170847533Y-64368330D01*
X170731259Y-64167115D01*
X170603533Y-63945970D01*
X170465886Y-63707547D01*
X170319855Y-63454499D01*
X170166972Y-63189481D01*
X170065771Y-63014000D01*
X169887699Y-62705223D01*
X169700344Y-62380410D01*
X169506939Y-62045163D01*
X169310718Y-61705086D01*
X169114916Y-61365783D01*
X168922766Y-61032856D01*
X168737501Y-60711908D01*
X168562356Y-60408544D01*
X168400565Y-60128365D01*
X168255361Y-59876975D01*
X168161198Y-59714000D01*
X168025394Y-59478940D01*
X167891749Y-59247526D01*
X167762629Y-59023855D01*
X167640397Y-58812028D01*
X167527418Y-58616143D01*
X167426054Y-58440301D01*
X167338671Y-58288600D01*
X167267633Y-58165139D01*
X167215302Y-58074018D01*
X167196989Y-58042038D01*
X167135882Y-57936259D01*
X167082223Y-57845482D01*
X167039902Y-57776119D01*
X167012810Y-57734584D01*
X167005000Y-57725501D01*
X166991879Y-57744074D01*
X166958971Y-57797192D01*
X166908635Y-57880865D01*
X166843233Y-57991106D01*
X166765124Y-58123926D01*
X166676669Y-58275336D01*
X166580227Y-58441347D01*
X166528469Y-58530797D01*
X166373032Y-58799827D01*
X166198332Y-59102267D01*
X166007311Y-59433020D01*
X165802908Y-59786996D01*
X165588064Y-60159099D01*
X165365717Y-60544236D01*
X165138809Y-60937315D01*
X164910280Y-61333240D01*
X164683068Y-61726920D01*
X164460115Y-62113260D01*
X164244360Y-62487166D01*
X164038743Y-62843546D01*
X163846205Y-63177306D01*
X163669684Y-63483352D01*
X163512122Y-63756590D01*
X163511053Y-63758445D01*
X163390170Y-63968041D01*
X163274894Y-64167788D01*
X163167315Y-64354077D01*
X163069519Y-64523296D01*
X162983597Y-64671835D01*
X162911636Y-64796083D01*
X162855725Y-64892429D01*
X162817953Y-64957262D01*
X162800866Y-64986223D01*
X162756930Y-65058445D01*
X161545651Y-65058445D01*
X161570312Y-65015350D01*
X161658492Y-64861634D01*
X161758649Y-64687355D01*
X161868729Y-64496093D01*
X161986676Y-64291430D01*
X162110437Y-64076949D01*
X162130718Y-64041825D01*
X162273260Y-63794992D01*
X162433379Y-63517714D01*
X162606431Y-63218035D01*
X162787770Y-62903999D01*
X162972752Y-62583651D01*
X163156731Y-62265036D01*
X163335061Y-61956197D01*
X163503099Y-61665179D01*
X163622467Y-61458445D01*
X163770401Y-61202238D01*
X163925166Y-60934203D01*
X164083169Y-60660562D01*
X164240817Y-60387539D01*
X164394515Y-60121358D01*
X164540670Y-59868244D01*
X164675688Y-59634419D01*
X164795975Y-59426109D01*
X164897938Y-59249536D01*
X164905626Y-59236223D01*
X165024750Y-59029932D01*
X165160766Y-58794388D01*
X165308342Y-58538824D01*
X165462146Y-58272474D01*
X165616845Y-58004574D01*
X165767106Y-57744356D01*
X165907597Y-57501057D01*
X165970699Y-57391778D01*
X166082998Y-57197739D01*
X166190099Y-57013521D01*
X166289668Y-56843082D01*
X166379370Y-56690380D01*
X166456871Y-56559371D01*
X166519836Y-56454015D01*
X166565931Y-56378268D01*
X166592820Y-56336088D01*
X166596336Y-56331162D01*
X166649076Y-56276639D01*
X166719957Y-56220873D01*
X166753704Y-56199218D01*
X166879590Y-56149827D01*
X167016282Y-56137421D01*
X167153291Y-56159976D01*
G37*
D12*
X107188748Y-114090000D02*
X108611252Y-114090000D01*
X107188748Y-115910000D02*
X108611252Y-115910000D01*
X206880000Y-102810000D02*
X206880000Y-113090000D01*
X206880000Y-113090000D02*
X227440000Y-113090000D01*
X206940000Y-105300000D02*
X206940000Y-106950000D01*
X206940000Y-108950000D02*
X206940000Y-110600000D01*
X206940000Y-110600000D02*
X227380000Y-110600000D01*
X227380000Y-105300000D02*
X206940000Y-105300000D01*
X227380000Y-110600000D02*
X227380000Y-105300000D01*
X227440000Y-102810000D02*
X206880000Y-102810000D01*
X227440000Y-113090000D02*
X227440000Y-102810000D01*
X206940000Y-106950000D02*
G75*
G02*
X206940000Y-108950000I0J-1000000D01*
G01*
X94388748Y-58790000D02*
X95811252Y-58790000D01*
X94388748Y-60610000D02*
X95811252Y-60610000D01*
D10*
X162400000Y-53500000D02*
G75*
G02*
X159800000Y-53500000I-1300000J0D01*
G01*
X159800000Y-53500000D02*
G75*
G02*
X162400000Y-53500000I1300000J0D01*
G01*
D12*
X124730000Y-102810000D02*
X124730000Y-113090000D01*
X124730000Y-113090000D02*
X145290000Y-113090000D01*
X124790000Y-105300000D02*
X124790000Y-106950000D01*
X124790000Y-108950000D02*
X124790000Y-110600000D01*
X124790000Y-110600000D02*
X145230000Y-110600000D01*
X145230000Y-105300000D02*
X124790000Y-105300000D01*
X145230000Y-110600000D02*
X145230000Y-105300000D01*
X145290000Y-102810000D02*
X124730000Y-102810000D01*
X145290000Y-113090000D02*
X145290000Y-102810000D01*
X124790000Y-106950000D02*
G75*
G02*
X124790000Y-108950000I0J-1000000D01*
G01*
X230890000Y-82488748D02*
X230890000Y-83911252D01*
X232710000Y-82488748D02*
X232710000Y-83911252D01*
X100940000Y-55240000D02*
X100940000Y-55495000D01*
X100940000Y-65760000D02*
X100940000Y-65505000D01*
X104800000Y-55240000D02*
X100940000Y-55240000D01*
X104800000Y-55240000D02*
X108660000Y-55240000D01*
X104800000Y-65760000D02*
X100940000Y-65760000D01*
X104800000Y-65760000D02*
X108660000Y-65760000D01*
X108660000Y-55240000D02*
X108660000Y-55495000D01*
X108660000Y-65760000D02*
X108660000Y-65505000D01*
X100087500Y-55495000D02*
X99747500Y-55025000D01*
X100427500Y-55025000D01*
X100087500Y-55495000D01*
G36*
X100087500Y-55495000D02*
G01*
X99747500Y-55025000D01*
X100427500Y-55025000D01*
X100087500Y-55495000D01*
G37*
X82840000Y-74900000D02*
X83790000Y-74900000D01*
X83790000Y-73980000D02*
X83790000Y-75820000D01*
X83790000Y-75820000D02*
X87630000Y-75820000D01*
X87630000Y-73980000D02*
X83790000Y-73980000D01*
X87630000Y-75820000D02*
X87630000Y-73980000D01*
X88580000Y-74900000D02*
X87630000Y-74900000D01*
X205100000Y-59150000D02*
X217400000Y-59150000D01*
X205100000Y-61270000D02*
X205100000Y-59150000D01*
X205100000Y-66270000D02*
X205100000Y-64330000D01*
X205100000Y-71450000D02*
X205100000Y-69330000D01*
X217400000Y-59150000D02*
X217400000Y-61270000D01*
X217400000Y-64330000D02*
X217400000Y-66270000D01*
X217400000Y-69330000D02*
X217400000Y-71450000D01*
X217400000Y-71450000D02*
X205100000Y-71450000D01*
X215929050Y-65340000D02*
G75*
G02*
X206770950Y-65340000I-4579050J0D01*
G01*
X206770950Y-65340000D02*
G75*
G02*
X215929050Y-65340000I4579050J0D01*
G01*
X137840000Y-75088380D02*
X138790000Y-75088380D01*
X138790000Y-74168380D02*
X138790000Y-76008380D01*
X138790000Y-76008380D02*
X142630000Y-76008380D01*
X142630000Y-74168380D02*
X138790000Y-74168380D01*
X142630000Y-76008380D02*
X142630000Y-74168380D01*
X143580000Y-75088380D02*
X142630000Y-75088380D01*
X121015000Y-51395000D02*
X121015000Y-56595000D01*
X126155000Y-51395000D02*
X121015000Y-51395000D01*
X126155000Y-51395000D02*
X126155000Y-53995000D01*
X126155000Y-53995000D02*
X128755000Y-53995000D01*
X127425000Y-51395000D02*
X128755000Y-51395000D01*
X128755000Y-51395000D02*
X128755000Y-52725000D01*
X128755000Y-53995000D02*
X128755000Y-56595000D01*
X128755000Y-56595000D02*
X121015000Y-56595000D01*
X151365000Y-59172936D02*
X151365000Y-59627064D01*
X152835000Y-59172936D02*
X152835000Y-59627064D01*
X94426248Y-56390000D02*
X95848752Y-56390000D01*
X94426248Y-58210000D02*
X95848752Y-58210000D01*
D14*
X215900000Y-82167120D02*
X215400000Y-82667120D01*
X215900000Y-82167120D02*
X216400000Y-82667120D01*
X215900000Y-83667120D02*
X215900000Y-82167120D01*
D15*
X223519999Y-87009640D02*
G75*
G02*
X208280001Y-87167120I-7619999J-78740D01*
G01*
X224772220Y-87167120D02*
G75*
G02*
X207027780Y-87167120I-8872220J0D01*
G01*
X207027780Y-87167120D02*
G75*
G02*
X224772220Y-87167120I8872220J0D01*
G01*
D12*
X132804248Y-66286000D02*
X134226752Y-66286000D01*
X132804248Y-68106000D02*
X134226752Y-68106000D01*
D14*
X195900000Y-82167120D02*
X195400000Y-82667120D01*
X195900000Y-82167120D02*
X196400000Y-82667120D01*
X195900000Y-83667120D02*
X195900000Y-82167120D01*
D15*
X203519999Y-87009640D02*
G75*
G02*
X188280001Y-87167120I-7619999J-78740D01*
G01*
X204772220Y-87167120D02*
G75*
G02*
X187027780Y-87167120I-8872220J0D01*
G01*
X187027780Y-87167120D02*
G75*
G02*
X204772220Y-87167120I8872220J0D01*
G01*
D14*
X85900000Y-82009640D02*
X85400000Y-82509640D01*
X85900000Y-82009640D02*
X86400000Y-82509640D01*
X85900000Y-83509640D02*
X85900000Y-82009640D01*
D15*
X93519999Y-86852160D02*
G75*
G02*
X78280001Y-87009640I-7619999J-78740D01*
G01*
X94772220Y-87009640D02*
G75*
G02*
X77027780Y-87009640I-8872220J0D01*
G01*
X77027780Y-87009640D02*
G75*
G02*
X94772220Y-87009640I8872220J0D01*
G01*
D12*
X194338748Y-113940000D02*
X195761252Y-113940000D01*
X194338748Y-115760000D02*
X195761252Y-115760000D01*
X94800000Y-102800000D02*
X94800000Y-113080000D01*
X94800000Y-113080000D02*
X115360000Y-113080000D01*
X94860000Y-105290000D02*
X94860000Y-106940000D01*
X94860000Y-108940000D02*
X94860000Y-110590000D01*
X94860000Y-110590000D02*
X115300000Y-110590000D01*
X115300000Y-105290000D02*
X94860000Y-105290000D01*
X115300000Y-110590000D02*
X115300000Y-105290000D01*
X115360000Y-102800000D02*
X94800000Y-102800000D01*
X115360000Y-113080000D02*
X115360000Y-102800000D01*
X94860000Y-106940000D02*
G75*
G02*
X94860000Y-108940000I0J-1000000D01*
G01*
X130190000Y-54611252D02*
X130190000Y-53188748D01*
X132010000Y-54611252D02*
X132010000Y-53188748D01*
X219288748Y-113990000D02*
X220711252Y-113990000D01*
X219288748Y-115810000D02*
X220711252Y-115810000D01*
X103250000Y-74900000D02*
X104200000Y-74900000D01*
X104200000Y-73980000D02*
X104200000Y-75820000D01*
X104200000Y-75820000D02*
X108040000Y-75820000D01*
X108040000Y-73980000D02*
X104200000Y-73980000D01*
X108040000Y-75820000D02*
X108040000Y-73980000D01*
X108990000Y-74900000D02*
X108040000Y-74900000D01*
X162238748Y-114090000D02*
X163661252Y-114090000D01*
X162238748Y-115910000D02*
X163661252Y-115910000D01*
X113572936Y-57165000D02*
X114027064Y-57165000D01*
X113572936Y-58635000D02*
X114027064Y-58635000D01*
X149265000Y-59172936D02*
X149265000Y-59627064D01*
X150735000Y-59172936D02*
X150735000Y-59627064D01*
X225100000Y-59150000D02*
X237400000Y-59150000D01*
X225100000Y-61270000D02*
X225100000Y-59150000D01*
X225100000Y-66270000D02*
X225100000Y-64330000D01*
X225100000Y-71450000D02*
X225100000Y-69330000D01*
X237400000Y-59150000D02*
X237400000Y-61270000D01*
X237400000Y-64330000D02*
X237400000Y-66270000D01*
X237400000Y-69330000D02*
X237400000Y-71450000D01*
X237400000Y-71450000D02*
X225100000Y-71450000D01*
X235929050Y-65340000D02*
G75*
G02*
X226770950Y-65340000I-4579050J0D01*
G01*
X226770950Y-65340000D02*
G75*
G02*
X235929050Y-65340000I4579050J0D01*
G01*
D14*
X160900000Y-82088380D02*
X160400000Y-82588380D01*
X160900000Y-82088380D02*
X161400000Y-82588380D01*
X160900000Y-83588380D02*
X160900000Y-82088380D01*
D15*
X168519999Y-86930900D02*
G75*
G02*
X153280001Y-87088380I-7619999J-78740D01*
G01*
X169772220Y-87088380D02*
G75*
G02*
X152027780Y-87088380I-8872220J0D01*
G01*
X152027780Y-87088380D02*
G75*
G02*
X169772220Y-87088380I8872220J0D01*
G01*
D12*
X124572936Y-59365000D02*
X125027064Y-59365000D01*
X124572936Y-60835000D02*
X125027064Y-60835000D01*
X70120000Y-102800000D02*
X70120000Y-113080000D01*
X70120000Y-113080000D02*
X90680000Y-113080000D01*
X70180000Y-105290000D02*
X70180000Y-106940000D01*
X70180000Y-108940000D02*
X70180000Y-110590000D01*
X70180000Y-110590000D02*
X90620000Y-110590000D01*
X90620000Y-105290000D02*
X70180000Y-105290000D01*
X90620000Y-110590000D02*
X90620000Y-105290000D01*
X90680000Y-102800000D02*
X70120000Y-102800000D01*
X90680000Y-113080000D02*
X90680000Y-102800000D01*
X70180000Y-106940000D02*
G75*
G02*
X70180000Y-108940000I0J-1000000D01*
G01*
X181890000Y-102810000D02*
X181890000Y-113090000D01*
X181890000Y-113090000D02*
X202450000Y-113090000D01*
X181950000Y-105300000D02*
X181950000Y-106950000D01*
X181950000Y-108950000D02*
X181950000Y-110600000D01*
X181950000Y-110600000D02*
X202390000Y-110600000D01*
X202390000Y-105300000D02*
X181950000Y-105300000D01*
X202390000Y-110600000D02*
X202390000Y-105300000D01*
X202450000Y-102810000D02*
X181890000Y-102810000D01*
X202450000Y-113090000D02*
X202450000Y-102810000D01*
X181950000Y-106950000D02*
G75*
G02*
X181950000Y-108950000I0J-1000000D01*
G01*
X158944473Y-75088380D02*
X159894473Y-75088380D01*
X159894473Y-74168380D02*
X159894473Y-76008380D01*
X159894473Y-76008380D02*
X163734473Y-76008380D01*
X163734473Y-74168380D02*
X159894473Y-74168380D01*
X163734473Y-76008380D02*
X163734473Y-74168380D01*
X164684473Y-75088380D02*
X163734473Y-75088380D01*
X137088748Y-113890000D02*
X138511252Y-113890000D01*
X137088748Y-115710000D02*
X138511252Y-115710000D01*
X84011252Y-114090000D02*
X82588748Y-114090000D01*
X84011252Y-115910000D02*
X82588748Y-115910000D01*
X116911252Y-63098000D02*
X115488748Y-63098000D01*
X116911252Y-64918000D02*
X115488748Y-64918000D01*
D10*
X174400000Y-53500000D02*
G75*
G02*
X171800000Y-53500000I-1300000J0D01*
G01*
X171800000Y-53500000D02*
G75*
G02*
X174400000Y-53500000I1300000J0D01*
G01*
X168400000Y-53500000D02*
G75*
G02*
X165800000Y-53500000I-1300000J0D01*
G01*
X165800000Y-53500000D02*
G75*
G02*
X168400000Y-53500000I1300000J0D01*
G01*
D12*
X149800000Y-102810000D02*
X149800000Y-113090000D01*
X149800000Y-113090000D02*
X170360000Y-113090000D01*
X149860000Y-105300000D02*
X149860000Y-106950000D01*
X149860000Y-108950000D02*
X149860000Y-110600000D01*
X149860000Y-110600000D02*
X170300000Y-110600000D01*
X170300000Y-105300000D02*
X149860000Y-105300000D01*
X170300000Y-110600000D02*
X170300000Y-105300000D01*
X170360000Y-102810000D02*
X149800000Y-102810000D01*
X170360000Y-113090000D02*
X170360000Y-102810000D01*
X149860000Y-106950000D02*
G75*
G02*
X149860000Y-108950000I0J-1000000D01*
G01*
D14*
X105900000Y-82009640D02*
X105400000Y-82509640D01*
X105900000Y-82009640D02*
X106400000Y-82509640D01*
X105900000Y-83509640D02*
X105900000Y-82009640D01*
D15*
X113519999Y-86852160D02*
G75*
G02*
X98280001Y-87009640I-7619999J-78740D01*
G01*
X114772220Y-87009640D02*
G75*
G02*
X97027780Y-87009640I-8872220J0D01*
G01*
X97027780Y-87009640D02*
G75*
G02*
X114772220Y-87009640I8872220J0D01*
G01*
D12*
X214800000Y-75167120D02*
X215750000Y-75167120D01*
X215750000Y-74247120D02*
X215750000Y-76087120D01*
X215750000Y-76087120D02*
X219590000Y-76087120D01*
X219590000Y-74247120D02*
X215750000Y-74247120D01*
X219590000Y-76087120D02*
X219590000Y-74247120D01*
X220540000Y-75167120D02*
X219590000Y-75167120D01*
D14*
X140900000Y-82088380D02*
X140400000Y-82588380D01*
X140900000Y-82088380D02*
X141400000Y-82588380D01*
X140900000Y-83588380D02*
X140900000Y-82088380D01*
D15*
X148519999Y-86930900D02*
G75*
G02*
X133280001Y-87088380I-7619999J-78740D01*
G01*
X149772220Y-87088380D02*
G75*
G02*
X132027780Y-87088380I-8872220J0D01*
G01*
X132027780Y-87088380D02*
G75*
G02*
X149772220Y-87088380I8872220J0D01*
G01*
D12*
X113572936Y-55065000D02*
X114027064Y-55065000D01*
X113572936Y-56535000D02*
X114027064Y-56535000D01*
X116811252Y-69990000D02*
X115388748Y-69990000D01*
X116811252Y-71810000D02*
X115388748Y-71810000D01*
%LPC*%
D16*
X119950000Y-64750000D03*
X119950000Y-65550000D03*
X119950000Y-66350000D03*
X119950000Y-67150000D03*
X119950000Y-67950000D03*
X119950000Y-68750000D03*
X119950000Y-69550000D03*
X119950000Y-70350000D03*
D17*
X121400000Y-71800000D03*
X122200000Y-71800000D03*
X123000000Y-71800000D03*
X123800000Y-71800000D03*
X124600000Y-71800000D03*
X125400000Y-71800000D03*
X126200000Y-71800000D03*
X127000000Y-71800000D03*
D16*
X128450000Y-70350000D03*
X128450000Y-69550000D03*
X128450000Y-68750000D03*
X128450000Y-67950000D03*
X128450000Y-67150000D03*
X128450000Y-66350000D03*
X128450000Y-65550000D03*
X128450000Y-64750000D03*
D17*
X127000000Y-63300000D03*
X126200000Y-63300000D03*
X125400000Y-63300000D03*
X124600000Y-63300000D03*
X123800000Y-63300000D03*
X123000000Y-63300000D03*
X122200000Y-63300000D03*
X121400000Y-63300000D03*
D18*
X151400000Y-54130000D03*
D19*
X149380000Y-54130000D03*
D20*
X148150000Y-54130000D03*
D21*
X150400000Y-54130000D03*
D22*
X152420000Y-54130000D03*
D23*
X153650000Y-54130000D03*
D24*
X155220000Y-54050000D03*
X155220000Y-50250000D03*
X146580000Y-54050000D03*
X146580000Y-50250000D03*
D25*
X191900000Y-75167120D03*
D26*
X199520000Y-75167120D03*
D27*
X231800000Y-87100000D03*
X231800000Y-89100000D03*
D28*
X107696000Y-69300000D03*
X95821000Y-69300000D03*
D29*
X131953000Y-69596000D03*
X135078000Y-69596000D03*
D30*
X65900000Y-114100000D03*
D31*
X117762500Y-67300000D03*
X114637500Y-67300000D03*
D29*
X106337500Y-115000000D03*
X109462500Y-115000000D03*
D32*
X208270000Y-111760000D03*
D33*
X210810000Y-111760000D03*
X213350000Y-111760000D03*
X215890000Y-111760000D03*
X218430000Y-111760000D03*
X220970000Y-111760000D03*
X223510000Y-111760000D03*
X226050000Y-111760000D03*
X226050000Y-104140000D03*
X223510000Y-104140000D03*
X220970000Y-104140000D03*
X218430000Y-104140000D03*
X215890000Y-104140000D03*
X213350000Y-104140000D03*
X210810000Y-104140000D03*
X208270000Y-104140000D03*
D29*
X93537500Y-59700000D03*
X96662500Y-59700000D03*
D34*
X161100000Y-53500000D03*
D32*
X126120000Y-111760000D03*
D33*
X128660000Y-111760000D03*
X131200000Y-111760000D03*
X133740000Y-111760000D03*
X136280000Y-111760000D03*
X138820000Y-111760000D03*
X141360000Y-111760000D03*
X143900000Y-111760000D03*
X143900000Y-104140000D03*
X141360000Y-104140000D03*
X138820000Y-104140000D03*
X136280000Y-104140000D03*
X133740000Y-104140000D03*
X131200000Y-104140000D03*
X128660000Y-104140000D03*
X126120000Y-104140000D03*
D35*
X231800000Y-81637500D03*
X231800000Y-84762500D03*
D36*
X100150000Y-56055000D03*
X100150000Y-57325000D03*
X100150000Y-58595000D03*
X100150000Y-59865000D03*
X100150000Y-61135000D03*
X100150000Y-62405000D03*
X100150000Y-63675000D03*
X100150000Y-64945000D03*
X109450000Y-64945000D03*
X109450000Y-63675000D03*
X109450000Y-62405000D03*
X109450000Y-61135000D03*
X109450000Y-59865000D03*
X109450000Y-58595000D03*
X109450000Y-57325000D03*
X109450000Y-56055000D03*
D30*
X65900000Y-54100000D03*
D25*
X81900000Y-74900000D03*
D26*
X89520000Y-74900000D03*
D37*
X205000000Y-62800000D03*
X217500000Y-62800000D03*
X205000000Y-67800000D03*
X217500000Y-67800000D03*
D25*
X136900000Y-75088380D03*
D26*
X144520000Y-75088380D03*
D38*
X127425000Y-52725000D03*
D39*
X127425000Y-55265000D03*
X124885000Y-52725000D03*
X124885000Y-55265000D03*
X122345000Y-52725000D03*
X122345000Y-55265000D03*
D27*
X152100000Y-58400000D03*
X152100000Y-60400000D03*
D29*
X93575000Y-57300000D03*
X96700000Y-57300000D03*
D40*
X220992700Y-83651760D03*
X210807300Y-83651760D03*
X209755740Y-86422900D03*
X210113880Y-89361680D03*
X211795360Y-91800080D03*
X214419180Y-93176760D03*
X217380820Y-93176760D03*
X220004640Y-91800080D03*
X221686120Y-89361680D03*
X222044260Y-86422900D03*
X215900000Y-80979680D03*
X213024720Y-81688340D03*
X218775280Y-81688340D03*
D30*
X235900000Y-114100000D03*
D29*
X131953000Y-67196000D03*
X135078000Y-67196000D03*
D40*
X200992700Y-83651760D03*
X190807300Y-83651760D03*
X189755740Y-86422900D03*
X190113880Y-89361680D03*
X191795360Y-91800080D03*
X194419180Y-93176760D03*
X197380820Y-93176760D03*
X200004640Y-91800080D03*
X201686120Y-89361680D03*
X202044260Y-86422900D03*
X195900000Y-80979680D03*
X193024720Y-81688340D03*
X198775280Y-81688340D03*
X90992700Y-83494280D03*
X80807300Y-83494280D03*
X79755740Y-86265420D03*
X80113880Y-89204200D03*
X81795360Y-91642600D03*
X84419180Y-93019280D03*
X87380820Y-93019280D03*
X90004640Y-91642600D03*
X91686120Y-89204200D03*
X92044260Y-86265420D03*
X85900000Y-80822200D03*
X83024720Y-81530860D03*
X88775280Y-81530860D03*
D29*
X193487500Y-114850000D03*
X196612500Y-114850000D03*
D32*
X96190000Y-111750000D03*
D33*
X98730000Y-111750000D03*
X101270000Y-111750000D03*
X103810000Y-111750000D03*
X106350000Y-111750000D03*
X108890000Y-111750000D03*
X111430000Y-111750000D03*
X113970000Y-111750000D03*
X113970000Y-104130000D03*
X111430000Y-104130000D03*
X108890000Y-104130000D03*
X106350000Y-104130000D03*
X103810000Y-104130000D03*
X101270000Y-104130000D03*
X98730000Y-104130000D03*
X96190000Y-104130000D03*
D41*
X131100000Y-55462500D03*
X131100000Y-52337500D03*
D29*
X218437500Y-114900000D03*
X221562500Y-114900000D03*
D25*
X109930000Y-74900000D03*
D26*
X102310000Y-74900000D03*
D29*
X161387500Y-115000000D03*
X164512500Y-115000000D03*
D42*
X112800000Y-57900000D03*
X114800000Y-57900000D03*
D27*
X150000000Y-58400000D03*
X150000000Y-60400000D03*
D37*
X225000000Y-62800000D03*
X237500000Y-62800000D03*
X225000000Y-67800000D03*
X237500000Y-67800000D03*
D40*
X165992700Y-83573020D03*
X155807300Y-83573020D03*
X154755740Y-86344160D03*
X155113880Y-89282940D03*
X156795360Y-91721340D03*
X159419180Y-93098020D03*
X162380820Y-93098020D03*
X165004640Y-91721340D03*
X166686120Y-89282940D03*
X167044260Y-86344160D03*
X160900000Y-80900940D03*
X158024720Y-81609600D03*
X163775280Y-81609600D03*
D42*
X123800000Y-60100000D03*
X125800000Y-60100000D03*
D32*
X71510000Y-111750000D03*
D33*
X74050000Y-111750000D03*
X76590000Y-111750000D03*
X79130000Y-111750000D03*
X81670000Y-111750000D03*
X84210000Y-111750000D03*
X86750000Y-111750000D03*
X89290000Y-111750000D03*
X89290000Y-104130000D03*
X86750000Y-104130000D03*
X84210000Y-104130000D03*
X81670000Y-104130000D03*
X79130000Y-104130000D03*
X76590000Y-104130000D03*
X74050000Y-104130000D03*
X71510000Y-104130000D03*
D32*
X183280000Y-111760000D03*
D33*
X185820000Y-111760000D03*
X188360000Y-111760000D03*
X190900000Y-111760000D03*
X193440000Y-111760000D03*
X195980000Y-111760000D03*
X198520000Y-111760000D03*
X201060000Y-111760000D03*
X201060000Y-104140000D03*
X198520000Y-104140000D03*
X195980000Y-104140000D03*
X193440000Y-104140000D03*
X190900000Y-104140000D03*
X188360000Y-104140000D03*
X185820000Y-104140000D03*
X183280000Y-104140000D03*
D25*
X165624473Y-75088380D03*
D26*
X158004473Y-75088380D03*
D29*
X136237500Y-114800000D03*
X139362500Y-114800000D03*
D31*
X84862500Y-115000000D03*
X81737500Y-115000000D03*
X117762500Y-64008000D03*
X114637500Y-64008000D03*
D34*
X173100000Y-53500000D03*
X167100000Y-53500000D03*
D32*
X151190000Y-111760000D03*
D33*
X153730000Y-111760000D03*
X156270000Y-111760000D03*
X158810000Y-111760000D03*
X161350000Y-111760000D03*
X163890000Y-111760000D03*
X166430000Y-111760000D03*
X168970000Y-111760000D03*
X168970000Y-104140000D03*
X166430000Y-104140000D03*
X163890000Y-104140000D03*
X161350000Y-104140000D03*
X158810000Y-104140000D03*
X156270000Y-104140000D03*
X153730000Y-104140000D03*
X151190000Y-104140000D03*
D30*
X235900000Y-54100000D03*
D40*
X110992700Y-83494280D03*
X100807300Y-83494280D03*
X99755740Y-86265420D03*
X100113880Y-89204200D03*
X101795360Y-91642600D03*
X104419180Y-93019280D03*
X107380820Y-93019280D03*
X110004640Y-91642600D03*
X111686120Y-89204200D03*
X112044260Y-86265420D03*
X105900000Y-80822200D03*
X103024720Y-81530860D03*
X108775280Y-81530860D03*
D25*
X221480000Y-75167120D03*
D26*
X213860000Y-75167120D03*
D40*
X145992700Y-83573020D03*
X135807300Y-83573020D03*
X134755740Y-86344160D03*
X135113880Y-89282940D03*
X136795360Y-91721340D03*
X139419180Y-93098020D03*
X142380820Y-93098020D03*
X145004640Y-91721340D03*
X146686120Y-89282940D03*
X147044260Y-86344160D03*
X140900000Y-80900940D03*
X138024720Y-81609600D03*
X143775280Y-81609600D03*
D42*
X112800000Y-55800000D03*
X114800000Y-55800000D03*
D31*
X117662500Y-70900000D03*
X114537500Y-70900000D03*
D43*
X89850073Y-54149926D03*
D44*
X75361455Y-68638544D03*
D45*
X121627997Y-60587000D03*
X122428000Y-60587000D03*
X126000000Y-74800000D03*
X123329857Y-74043143D03*
X220600000Y-70600000D03*
X125400000Y-62000000D03*
X226050000Y-76050000D03*
X122800000Y-59073000D03*
X116612460Y-59155540D03*
X130000000Y-71200000D03*
X121200000Y-74000000D03*
X113200000Y-73600000D03*
X114808000Y-54475000D03*
X98298000Y-55880000D03*
X121539000Y-66675000D03*
X231700000Y-83200000D03*
X179730000Y-70260000D03*
X121285000Y-68834000D03*
X127600000Y-74000000D03*
X119400000Y-63000000D03*
X118628821Y-65394179D03*
X125056644Y-74743356D03*
X120800000Y-61841000D03*
X130800000Y-64400000D03*
X130400000Y-63600000D03*
X154427354Y-109976821D03*
X127000000Y-61600000D03*
X122400000Y-74000000D03*
X126800000Y-74400000D03*
X226100000Y-77100000D03*
X118443500Y-59876946D03*
X124427000Y-61404000D03*
X221056644Y-71943356D03*
X127900000Y-61900000D03*
X236500000Y-90000000D03*
X237127000Y-90873000D03*
X126798000Y-57600000D03*
X123043356Y-57843356D03*
X231800000Y-94500000D03*
X164512500Y-116506500D03*
X130048000Y-66421000D03*
X114637500Y-68562500D03*
X231700000Y-80100000D03*
X98552000Y-64945000D03*
X148642000Y-60400000D03*
X153650000Y-56769000D03*
X139362500Y-116332000D03*
X93537500Y-61062500D03*
X135078000Y-65631500D03*
X153364000Y-60400000D03*
X121412000Y-65786000D03*
X109462500Y-116574500D03*
X196596000Y-116332000D03*
X221562500Y-116511500D03*
X84862500Y-116559500D03*
X114537500Y-72337500D03*
X135078000Y-71221500D03*
X114637500Y-62400000D03*
X121793000Y-67437000D03*
X148150000Y-56769000D03*
X93575000Y-55825000D03*
X110998000Y-64945000D03*
%LPD*%
M02*
