G04 #@! TF.GenerationSoftware,KiCad,Pcbnew,8.0.1*
G04 #@! TF.CreationDate,2025-01-11T23:12:33+02:00*
G04 #@! TF.ProjectId,NixProjectRev02,4e697850-726f-46a6-9563-745265763032,Rev02*
G04 #@! TF.SameCoordinates,Original*
G04 #@! TF.FileFunction,Paste,Top*
G04 #@! TF.FilePolarity,Positive*
%FSLAX46Y46*%
G04 Gerber Fmt 4.6, Leading zero omitted, Abs format (unit mm)*
G04 Created by KiCad (PCBNEW 8.0.1) date 2025-01-11 23:12:33*
%MOMM*%
%LPD*%
G01*
G04 APERTURE LIST*
G04 Aperture macros list*
%AMRoundRect*
0 Rectangle with rounded corners*
0 $1 Rounding radius*
0 $2 $3 $4 $5 $6 $7 $8 $9 X,Y pos of 4 corners*
0 Add a 4 corners polygon primitive as box body*
4,1,4,$2,$3,$4,$5,$6,$7,$8,$9,$2,$3,0*
0 Add four circle primitives for the rounded corners*
1,1,$1+$1,$2,$3*
1,1,$1+$1,$4,$5*
1,1,$1+$1,$6,$7*
1,1,$1+$1,$8,$9*
0 Add four rect primitives between the rounded corners*
20,1,$1+$1,$2,$3,$4,$5,0*
20,1,$1+$1,$4,$5,$6,$7,0*
20,1,$1+$1,$6,$7,$8,$9,0*
20,1,$1+$1,$8,$9,$2,$3,0*%
G04 Aperture macros list end*
%ADD10R,1.600000X0.550000*%
%ADD11R,0.550000X1.600000*%
%ADD12RoundRect,0.175000X0.175000X0.425000X-0.175000X0.425000X-0.175000X-0.425000X0.175000X-0.425000X0*%
%ADD13RoundRect,0.190000X-0.190000X-0.410000X0.190000X-0.410000X0.190000X0.410000X-0.190000X0.410000X0*%
%ADD14RoundRect,0.200000X-0.200000X-0.400000X0.200000X-0.400000X0.200000X0.400000X-0.200000X0.400000X0*%
%ADD15RoundRect,0.175000X-0.175000X-0.425000X0.175000X-0.425000X0.175000X0.425000X-0.175000X0.425000X0*%
%ADD16RoundRect,0.190000X0.190000X0.410000X-0.190000X0.410000X-0.190000X-0.410000X0.190000X-0.410000X0*%
%ADD17RoundRect,0.200000X0.200000X0.400000X-0.200000X0.400000X-0.200000X-0.400000X0.200000X-0.400000X0*%
%ADD18O,1.100000X1.700000*%
%ADD19RoundRect,0.250000X-0.450000X0.350000X-0.450000X-0.350000X0.450000X-0.350000X0.450000X0.350000X0*%
%ADD20R,7.875000X2.000000*%
%ADD21RoundRect,0.250000X-0.412500X-0.650000X0.412500X-0.650000X0.412500X0.650000X-0.412500X0.650000X0*%
%ADD22RoundRect,0.250000X0.412500X0.650000X-0.412500X0.650000X-0.412500X-0.650000X0.412500X-0.650000X0*%
%ADD23RoundRect,0.250000X-0.650000X0.412500X-0.650000X-0.412500X0.650000X-0.412500X0.650000X0.412500X0*%
%ADD24RoundRect,0.150000X-0.875000X-0.150000X0.875000X-0.150000X0.875000X0.150000X-0.875000X0.150000X0*%
%ADD25RoundRect,0.250000X0.650000X-0.412500X0.650000X0.412500X-0.650000X0.412500X-0.650000X-0.412500X0*%
%ADD26RoundRect,0.250000X-0.350000X-0.450000X0.350000X-0.450000X0.350000X0.450000X-0.350000X0.450000X0*%
G04 APERTURE END LIST*
D10*
X119950000Y-64750000D03*
X119950000Y-65550000D03*
X119950000Y-66350000D03*
X119950000Y-67150000D03*
X119950000Y-67950000D03*
X119950000Y-68750000D03*
X119950000Y-69550000D03*
X119950000Y-70350000D03*
D11*
X121400000Y-71800000D03*
X122200000Y-71800000D03*
X123000000Y-71800000D03*
X123800000Y-71800000D03*
X124600000Y-71800000D03*
X125400000Y-71800000D03*
X126200000Y-71800000D03*
X127000000Y-71800000D03*
D10*
X128450000Y-70350000D03*
X128450000Y-69550000D03*
X128450000Y-68750000D03*
X128450000Y-67950000D03*
X128450000Y-67150000D03*
X128450000Y-66350000D03*
X128450000Y-65550000D03*
X128450000Y-64750000D03*
D11*
X127000000Y-63300000D03*
X126200000Y-63300000D03*
X125400000Y-63300000D03*
X124600000Y-63300000D03*
X123800000Y-63300000D03*
X123000000Y-63300000D03*
X122200000Y-63300000D03*
X121400000Y-63300000D03*
D12*
X151400000Y-54130000D03*
D13*
X149380000Y-54130000D03*
D14*
X148150000Y-54130000D03*
D15*
X150400000Y-54130000D03*
D16*
X152420000Y-54130000D03*
D17*
X153650000Y-54130000D03*
D18*
X155220000Y-54050000D03*
X155220000Y-50250000D03*
X146580000Y-54050000D03*
X146580000Y-50250000D03*
D19*
X231800000Y-87100000D03*
X231800000Y-89100000D03*
D20*
X107696000Y-69300000D03*
X95821000Y-69300000D03*
D21*
X131953000Y-69596000D03*
X135078000Y-69596000D03*
D22*
X117762500Y-67300000D03*
X114637500Y-67300000D03*
D21*
X106337500Y-115000000D03*
X109462500Y-115000000D03*
X93537500Y-59700000D03*
X96662500Y-59700000D03*
D23*
X231800000Y-81637500D03*
X231800000Y-84762500D03*
D24*
X100150000Y-56055000D03*
X100150000Y-57325000D03*
X100150000Y-58595000D03*
X100150000Y-59865000D03*
X100150000Y-61135000D03*
X100150000Y-62405000D03*
X100150000Y-63675000D03*
X100150000Y-64945000D03*
X109450000Y-64945000D03*
X109450000Y-63675000D03*
X109450000Y-62405000D03*
X109450000Y-61135000D03*
X109450000Y-59865000D03*
X109450000Y-58595000D03*
X109450000Y-57325000D03*
X109450000Y-56055000D03*
D19*
X152100000Y-58400000D03*
X152100000Y-60400000D03*
D21*
X93575000Y-57300000D03*
X96700000Y-57300000D03*
X131953000Y-67196000D03*
X135078000Y-67196000D03*
X193487500Y-114850000D03*
X196612500Y-114850000D03*
D25*
X131100000Y-55462500D03*
X131100000Y-52337500D03*
D21*
X218437500Y-114900000D03*
X221562500Y-114900000D03*
X161387500Y-115000000D03*
X164512500Y-115000000D03*
D26*
X112800000Y-57900000D03*
X114800000Y-57900000D03*
D19*
X150000000Y-58400000D03*
X150000000Y-60400000D03*
D26*
X123800000Y-60100000D03*
X125800000Y-60100000D03*
D21*
X136237500Y-114800000D03*
X139362500Y-114800000D03*
D22*
X84862500Y-115000000D03*
X81737500Y-115000000D03*
X117762500Y-64008000D03*
X114637500Y-64008000D03*
D26*
X112800000Y-55800000D03*
X114800000Y-55800000D03*
D22*
X117662500Y-70900000D03*
X114537500Y-70900000D03*
M02*
