M48
; DRILL file {KiCad 8.0.1} date 2025-01-11T23:12:29+0200
; FORMAT={-:-/ absolute / metric / decimal}
; #@! TF.CreationDate,2025-01-11T23:12:29+02:00
; #@! TF.GenerationSoftware,Kicad,Pcbnew,8.0.1
; #@! TF.FileFunction,Plated,1,2,PTH
FMAT,2
METRIC
; #@! TA.AperFunction,Plated,PTH,ViaDrill
T1C0.300
; #@! TA.AperFunction,Plated,PTH,ComponentDrill
T2C0.600
; #@! TA.AperFunction,Plated,PTH,ComponentDrill
T3C0.700
; #@! TA.AperFunction,Plated,PTH,ComponentDrill
T4C0.800
; #@! TA.AperFunction,Plated,PTH,ComponentDrill
T5C0.838
; #@! TA.AperFunction,Plated,PTH,ComponentDrill
T6C1.000
; #@! TA.AperFunction,Plated,PTH,ComponentDrill
T7C1.200
; #@! TA.AperFunction,Plated,PTH,ComponentDrill
T8C1.500
; #@! TA.AperFunction,Plated,PTH,ComponentDrill
T9C4.300
%
G90
G05
T1
X84.862Y-116.559
X93.537Y-61.062
X93.575Y-55.825
X98.298Y-55.88
X98.552Y-64.945
X109.462Y-116.575
X110.998Y-64.945
X113.2Y-73.6
X114.537Y-72.337
X114.637Y-62.4
X114.637Y-68.562
X114.808Y-54.475
X116.612Y-59.156
X118.444Y-59.877
X118.629Y-65.394
X119.4Y-63.0
X120.8Y-61.841
X121.2Y-74.0
X121.285Y-68.834
X121.412Y-65.786
X121.539Y-66.675
X121.628Y-60.587
X121.793Y-67.437
X122.4Y-74.0
X122.428Y-60.587
X122.8Y-59.073
X123.043Y-57.843
X123.33Y-74.043
X124.427Y-61.404
X125.057Y-74.743
X125.4Y-62.0
X126.0Y-74.8
X126.798Y-57.6
X126.8Y-74.4
X127.0Y-61.6
X127.6Y-74.0
X127.9Y-61.9
X130.0Y-71.2
X130.048Y-66.421
X130.4Y-63.6
X130.8Y-64.4
X135.078Y-65.632
X135.078Y-71.221
X139.362Y-116.332
X148.15Y-56.769
X148.642Y-60.4
X153.364Y-60.4
X153.65Y-56.769
X154.427Y-109.977
X164.512Y-116.506
X179.73Y-70.26
X196.596Y-116.332
X220.6Y-70.6
X221.057Y-71.943
X221.562Y-116.511
X226.05Y-76.05
X226.1Y-77.1
X231.7Y-80.1
X231.7Y-83.2
X231.8Y-94.5
X236.5Y-90.0
X237.127Y-90.873
T3
X81.9Y-74.9
X89.52Y-74.9
X102.31Y-74.9
X109.93Y-74.9
X136.9Y-75.088
X144.52Y-75.088
X158.004Y-75.088
X165.624Y-75.088
X191.9Y-75.167
X199.52Y-75.167
X213.86Y-75.167
X221.48Y-75.167
T4
X71.51Y-104.13
X71.51Y-111.75
X74.05Y-104.13
X74.05Y-111.75
X76.59Y-104.13
X76.59Y-111.75
X79.13Y-104.13
X79.13Y-111.75
X81.67Y-104.13
X81.67Y-111.75
X84.21Y-104.13
X84.21Y-111.75
X86.75Y-104.13
X86.75Y-111.75
X89.29Y-104.13
X89.29Y-111.75
X96.19Y-104.13
X96.19Y-111.75
X98.73Y-104.13
X98.73Y-111.75
X101.27Y-104.13
X101.27Y-111.75
X103.81Y-104.13
X103.81Y-111.75
X106.35Y-104.13
X106.35Y-111.75
X108.89Y-104.13
X108.89Y-111.75
X111.43Y-104.13
X111.43Y-111.75
X113.97Y-104.13
X113.97Y-111.75
X126.12Y-104.14
X126.12Y-111.76
X128.66Y-104.14
X128.66Y-111.76
X131.2Y-104.14
X131.2Y-111.76
X133.74Y-104.14
X133.74Y-111.76
X136.28Y-104.14
X136.28Y-111.76
X138.82Y-104.14
X138.82Y-111.76
X141.36Y-104.14
X141.36Y-111.76
X143.9Y-104.14
X143.9Y-111.76
X151.19Y-104.14
X151.19Y-111.76
X153.73Y-104.14
X153.73Y-111.76
X156.27Y-104.14
X156.27Y-111.76
X158.81Y-104.14
X158.81Y-111.76
X161.35Y-104.14
X161.35Y-111.76
X163.89Y-104.14
X163.89Y-111.76
X166.43Y-104.14
X166.43Y-111.76
X168.97Y-104.14
X168.97Y-111.76
X183.28Y-104.14
X183.28Y-111.76
X185.82Y-104.14
X185.82Y-111.76
X188.36Y-104.14
X188.36Y-111.76
X190.9Y-104.14
X190.9Y-111.76
X193.44Y-104.14
X193.44Y-111.76
X195.98Y-104.14
X195.98Y-111.76
X198.52Y-104.14
X198.52Y-111.76
X201.06Y-104.14
X201.06Y-111.76
X208.27Y-104.14
X208.27Y-111.76
X210.81Y-104.14
X210.81Y-111.76
X213.35Y-104.14
X213.35Y-111.76
X215.89Y-104.14
X215.89Y-111.76
X218.43Y-104.14
X218.43Y-111.76
X220.97Y-104.14
X220.97Y-111.76
X223.51Y-104.14
X223.51Y-111.76
X226.05Y-104.14
X226.05Y-111.76
T5
X79.756Y-86.265
X80.114Y-89.204
X80.807Y-83.494
X81.795Y-91.643
X83.025Y-81.531
X84.419Y-93.019
X85.9Y-80.822
X87.381Y-93.019
X88.775Y-81.531
X90.005Y-91.643
X90.993Y-83.494
X91.686Y-89.204
X92.044Y-86.265
X99.756Y-86.265
X100.114Y-89.204
X100.807Y-83.494
X101.795Y-91.643
X103.025Y-81.531
X104.419Y-93.019
X105.9Y-80.822
X107.381Y-93.019
X108.775Y-81.531
X110.005Y-91.643
X110.993Y-83.494
X111.686Y-89.204
X112.044Y-86.265
X134.756Y-86.344
X135.114Y-89.283
X135.807Y-83.573
X136.795Y-91.721
X138.025Y-81.61
X139.419Y-93.098
X140.9Y-80.901
X142.381Y-93.098
X143.775Y-81.61
X145.005Y-91.721
X145.993Y-83.573
X146.686Y-89.283
X147.044Y-86.344
X154.756Y-86.344
X155.114Y-89.283
X155.807Y-83.573
X156.795Y-91.721
X158.025Y-81.61
X159.419Y-93.098
X160.9Y-80.901
X162.381Y-93.098
X163.775Y-81.61
X165.005Y-91.721
X165.993Y-83.573
X166.686Y-89.283
X167.044Y-86.344
X189.756Y-86.423
X190.114Y-89.362
X190.807Y-83.652
X191.795Y-91.8
X193.025Y-81.688
X194.419Y-93.177
X195.9Y-80.98
X197.381Y-93.177
X198.775Y-81.688
X200.005Y-91.8
X200.993Y-83.652
X201.686Y-89.362
X202.044Y-86.423
X209.756Y-86.423
X210.114Y-89.362
X210.807Y-83.652
X211.795Y-91.8
X213.025Y-81.688
X214.419Y-93.177
X215.9Y-80.98
X217.381Y-93.177
X218.775Y-81.688
X220.005Y-91.8
X220.993Y-83.652
X221.686Y-89.362
X222.044Y-86.423
T6
X122.345Y-52.725
X122.345Y-55.265
X124.885Y-52.725
X124.885Y-55.265
X127.425Y-52.725
X127.425Y-55.265
T7
X205.0Y-62.8
X205.0Y-67.8
X217.5Y-62.8
X217.5Y-67.8
X225.0Y-62.8
X225.0Y-67.8
X237.5Y-62.8
X237.5Y-67.8
T8
X75.361Y-68.639
X89.85Y-54.15
T9
X65.9Y-54.1
X65.9Y-114.1
X235.9Y-54.1
X235.9Y-114.1
T2
X146.58Y-50.55G85X146.58Y-49.95
G05
X146.58Y-54.35G85X146.58Y-53.75
G05
X155.22Y-50.55G85X155.22Y-49.95
G05
X155.22Y-54.35G85X155.22Y-53.75
G05
M30
