%TF.GenerationSoftware,KiCad,Pcbnew,8.0.1*%
%TF.CreationDate,2025-01-11T23:12:29+02:00*%
%TF.ProjectId,NixProjectRev02,4e697850-726f-46a6-9563-745265763032,Rev02*%
%TF.SameCoordinates,Original*%
%TF.FileFunction,Drillmap*%
%TF.FilePolarity,Positive*%
%FSLAX45Y45*%
G04 Gerber Fmt 4.5, Leading zero omitted, Abs format (unit mm)*
G04 Created by KiCad (PCBNEW 8.0.1) date 2025-01-11 23:12:29*
%MOMM*%
%LPD*%
G01*
G04 APERTURE LIST*
%ADD10C,0.050000*%
%ADD11C,0.200000*%
G04 APERTURE END LIST*
D10*
X6090000Y-11910000D02*
X24090000Y-11910000D01*
X6090000Y-4910000D02*
X24090000Y-4910000D01*
X24090000Y-11910000D02*
X24090000Y-4910000D01*
X6090000Y-11910000D02*
X6090000Y-4910000D01*
D11*
X6348277Y-12223984D02*
X6348277Y-12023984D01*
X6348277Y-12023984D02*
X6395896Y-12023984D01*
X6395896Y-12023984D02*
X6424467Y-12033508D01*
X6424467Y-12033508D02*
X6443515Y-12052555D01*
X6443515Y-12052555D02*
X6453039Y-12071603D01*
X6453039Y-12071603D02*
X6462562Y-12109698D01*
X6462562Y-12109698D02*
X6462562Y-12138269D01*
X6462562Y-12138269D02*
X6453039Y-12176365D01*
X6453039Y-12176365D02*
X6443515Y-12195412D01*
X6443515Y-12195412D02*
X6424467Y-12214460D01*
X6424467Y-12214460D02*
X6395896Y-12223984D01*
X6395896Y-12223984D02*
X6348277Y-12223984D01*
X6548277Y-12223984D02*
X6548277Y-12090650D01*
X6548277Y-12128746D02*
X6557801Y-12109698D01*
X6557801Y-12109698D02*
X6567324Y-12100174D01*
X6567324Y-12100174D02*
X6586372Y-12090650D01*
X6586372Y-12090650D02*
X6605420Y-12090650D01*
X6672086Y-12223984D02*
X6672086Y-12090650D01*
X6672086Y-12023984D02*
X6662562Y-12033508D01*
X6662562Y-12033508D02*
X6672086Y-12043031D01*
X6672086Y-12043031D02*
X6681610Y-12033508D01*
X6681610Y-12033508D02*
X6672086Y-12023984D01*
X6672086Y-12023984D02*
X6672086Y-12043031D01*
X6795896Y-12223984D02*
X6776848Y-12214460D01*
X6776848Y-12214460D02*
X6767324Y-12195412D01*
X6767324Y-12195412D02*
X6767324Y-12023984D01*
X6900658Y-12223984D02*
X6881610Y-12214460D01*
X6881610Y-12214460D02*
X6872086Y-12195412D01*
X6872086Y-12195412D02*
X6872086Y-12023984D01*
X7129229Y-12223984D02*
X7129229Y-12023984D01*
X7129229Y-12023984D02*
X7195896Y-12166841D01*
X7195896Y-12166841D02*
X7262562Y-12023984D01*
X7262562Y-12023984D02*
X7262562Y-12223984D01*
X7443515Y-12223984D02*
X7443515Y-12119222D01*
X7443515Y-12119222D02*
X7433991Y-12100174D01*
X7433991Y-12100174D02*
X7414943Y-12090650D01*
X7414943Y-12090650D02*
X7376848Y-12090650D01*
X7376848Y-12090650D02*
X7357801Y-12100174D01*
X7443515Y-12214460D02*
X7424467Y-12223984D01*
X7424467Y-12223984D02*
X7376848Y-12223984D01*
X7376848Y-12223984D02*
X7357801Y-12214460D01*
X7357801Y-12214460D02*
X7348277Y-12195412D01*
X7348277Y-12195412D02*
X7348277Y-12176365D01*
X7348277Y-12176365D02*
X7357801Y-12157317D01*
X7357801Y-12157317D02*
X7376848Y-12147793D01*
X7376848Y-12147793D02*
X7424467Y-12147793D01*
X7424467Y-12147793D02*
X7443515Y-12138269D01*
X7538753Y-12090650D02*
X7538753Y-12290650D01*
X7538753Y-12100174D02*
X7557801Y-12090650D01*
X7557801Y-12090650D02*
X7595896Y-12090650D01*
X7595896Y-12090650D02*
X7614943Y-12100174D01*
X7614943Y-12100174D02*
X7624467Y-12109698D01*
X7624467Y-12109698D02*
X7633991Y-12128746D01*
X7633991Y-12128746D02*
X7633991Y-12185888D01*
X7633991Y-12185888D02*
X7624467Y-12204936D01*
X7624467Y-12204936D02*
X7614943Y-12214460D01*
X7614943Y-12214460D02*
X7595896Y-12223984D01*
X7595896Y-12223984D02*
X7557801Y-12223984D01*
X7557801Y-12223984D02*
X7538753Y-12214460D01*
X7719705Y-12204936D02*
X7729229Y-12214460D01*
X7729229Y-12214460D02*
X7719705Y-12223984D01*
X7719705Y-12223984D02*
X7710182Y-12214460D01*
X7710182Y-12214460D02*
X7719705Y-12204936D01*
X7719705Y-12204936D02*
X7719705Y-12223984D01*
X7719705Y-12100174D02*
X7729229Y-12109698D01*
X7729229Y-12109698D02*
X7719705Y-12119222D01*
X7719705Y-12119222D02*
X7710182Y-12109698D01*
X7710182Y-12109698D02*
X7719705Y-12100174D01*
X7719705Y-12100174D02*
X7719705Y-12119222D01*
M02*
